<ttFont>
          <CharString index="0">
            rmoveto
            226 113 176 157 11 hvcurveto
            1 11 0 11 11 vvcurveto
            -158 hlineto
            -70 -18 -31 -114 -133 hhcurveto
            -122 -25 72 74 -8 hvcurveto
            -1 14 1 13 11 vvcurveto
            -161 hlineto
            -3 -12 -4 -25 -15 vvcurveto
            -169 84 -145 228 vhcurveto
            return
          </CharString>
          <CharString index="1">
            rmoveto
            -334 3 172 -276 347 hhcurveto
            445 285 429 521 -4 hvcurveto
            334 -3 -171 278 -343 32 callsubr
            552 -401 rmoveto
            -176 -87 120 309 -4 hvcurveto
            343 -3 161 370 253 hhcurveto
            176 88 -117 -309 3 hvcurveto
            -356 3 -161 -360 -253 hhcurveto
            return
          </CharString>
          <CharString index="2">
            rmoveto
            -37 45 175 -57 161 hhcurveto
            325 232 153 303 -2 hvcurveto
            -2 199 -158 126 -132 97 -140 101 -77 69 5 128 rrcurveto
            121 4 105 50 124 hhcurveto
            88 120 -30 -56 55 hvcurveto
            87 216 rlineto
            37 -51 -120 48 -181 hhcurveto
            -296 -206 -164 -269 3 hvcurveto
            2 -204 146 -135 137 -97 155 -109 49 -71 -1 -100 rrcurveto
            -130 -1 -105 -64 -155 hhcurveto
            -114 -139 54 45 -50 hvcurveto
            return
          </CharString>
          <CharString index="3">
            rmoveto
            -51 -210 rlineto
            -18 41 136 -22 93 hhcurveto
            240 289 96 354 51 hvcurveto
            167 1217 -152 -39 rlineto
            19 -63 -97 20 -77 hhcurveto
            -459 -216 -401 -341 -67 callsubr
            161 119 122 113 67 hvcurveto
            -55 -316 rlineto
            -143 -28 -60 -92 -157 hhcurveto
            -112 -122 49 22 -38 hvcurveto
            305 443 rmoveto
            -74 -42 79 176 239 114 -12 callgsubr
            38 -4 -9 35 hvcurveto
            -67 -481 rlineto
            -125 -56 -115 -179 -120 hhcurveto
            return
          </CharString>
          <CharString index="4">
            -71 -255 rmoveto
            -73 -203 rlineto
            -24 48 80 -27 74 hhcurveto
            282 121 187 171 131 hvcurveto
            86 112 93 148 80 172 109 225 81 245 9 246 2 63 -1 50 -3 30 rrcurveto
            -256 hlineto
            -1 -47 0 -49 -4 -52 -22 -265 -43 -178 -107 -210 -23 -73 -49 -98 -39 -73 -36 312 rcurveline
            -79 733 rlineto
            -284 hlineto
            112 -783 60 -375 rlineto
            164 hlineto
            -221 -149 -95 -62 -121 hhcurveto
            -62 -55 27 19 -30 hvcurveto
            return
          </CharString>
          <CharString index="5">
            rmoveto
            -30 37 143 -34 133 hhcurveto
            233 201 94 235 151 -93 85 -118 94 hvcurveto
            -96 81 -64 38 87 vvcurveto
            71 63 39 96 115 88 -55 -27 24 vhcurveto
            38 241 rlineto
            13 -31 -112 25 -119 hhcurveto
            -241 -180 -117 -205 -155 83 -84 96 -82 hvcurveto
            97 -82 88 -52 -84 vvcurveto
            -90 -80 -23 -87 -107 -120 59 33 -40 vhcurveto
            return
          </CharString>
          <CharString index="6">
            rmoveto
            -305 2 144 -328 405 hhcurveto
            172 146 45 30 104 hvcurveto
            55 16 35 8 33 4 94 703 rcurveline
            -501 hlineto
            -27 -220 rlineto
            240 hlineto
            -46 -322 rlineto
            -38 -77 -115 -16 -69 hhcurveto
            -226 -88 199 245 -1 hvcurveto
            295 -2 125 389 364 hhcurveto
            181 141 -68 -36 47 hvcurveto
            68 250 -66 22 rlineto
            21 -64 -114 35 -187 hhcurveto
            -434 -345 -375 -554 6 hvcurveto
            return
          </CharString>
          <CharString index="7">
            rmoveto
            105 64 81 94 3 hvcurveto
            71 2 -56 67 -86 hhcurveto
            -88 -74 -77 -93 -1 hvcurveto
            -74 -1 60 -69 72 hhcurveto
            -445 hmoveto
            104 64 81 94 2 hvcurveto
            71 2 -54 67 -86 hhcurveto
            -89 -72 -77 -93 -3 hvcurveto
            -73 -2 62 -70 72 hhcurveto
            return
          </CharString>
          <CharString index="8">
            22 -51 -60 4 -53 hhcurveto
            -257 -163 -178 -258 -36 hvcurveto
            -16 -100 rlineto
            -122 hlineto
            -34 -186 rlineto
            130 hlineto
            return
          </CharString>
          <CharString index="9">
            rmoveto
            110 72 81 94 3 hvcurveto
            75 2 -57 63 -97 hhcurveto
            -95 -79 -77 -93 -3 hvcurveto
            -78 -2 64 -65 82 hhcurveto
            return
          </CharString>
          <CharString index="10">
            hlineto
            25 223 -666 -13 63 474 432 -12 24 221 -428 -6 57 432 572 -5 22 216 rlineto
            -841 hlineto
            return
          </CharString>
          <CharString index="11">
            272 hlineto
            2 63 463 67 489 vhcurveto
            203 hlineto
            20 186 rlineto
            -200 hlineto
            24 155 rlineto
            return
          </CharString>
          <CharString index="12">
            rmoveto
            -250 118 -204 277 203 133 115 77 53 vhcurveto
            -77 138 rlineto
            -72 -71 -92 -55 -86 hhcurveto
            -123 -54 83 206 293 152 175 145 75 82 -52 -31 36 hvcurveto
            68 255 rlineto
            27 -58 -109 13 -72 hhcurveto
            -372 -228 -351 -367 hvcurveto
            return
          </CharString>
          <CharString index="13">
            rmoveto
            290 hlineto
            265 703 58 169 16 -169 76 -703 rlineto
            308 hlineto
            612 1535 rlineto
            -282 hlineto
            -376 -1037 -63 -219 -19 219 -88 1037 rlineto
            -268 hlineto
            30 -279 -300 -758 -64 -219 -26 219 -100 1037 rlineto
            -277 hlineto
            return
          </CharString>
          <CharString index="14">
            rmoveto
            301 223 196 -219 124 68 -201 374 rlineto
            -179 hlineto
            -349 -374 rlineto
            return
          </CharString>
          <CharString index="15">
            48 -342 277 1 -257 -57 callsubr
            rlineto
            -334 hlineto
            -210 -993 rmoveto
            296 679 47 121 10 -118 95 -682 rlineto
            return
          </CharString>
          <CharString index="16">
            -157 -136 -5 -41 rlineto
            48 -43 29 -91 -78 vvcurveto
            -160 -91 -117 -69 -35 vhcurveto
            -2 -22 95 -126 rlineto
            134 60 200 168 283 vvcurveto
            176 -101 122 -81 40 vhcurveto
            return
          </CharString>
          <CharString index="17">
            262 hlineto
            120 921 12 287 76 -254 402 -954 rlineto
            245 hlineto
            206 -57 callsubr
            rlineto
            -265 hlineto
            -110 -906 -16 -254 -71 233 -398 927 rlineto
            -257 hlineto
            endchar
          </CharString>
          <CharString index="18">
            199 15 callsubr
            0 -20 231 315 -175 -32 callsubr
            -89 15 callgsubr
            hintmask 1010000100000000
            832 hmoveto
            -84 callsubr
            hintmask 0001000010000000
            175 -73 callsubr
            11 callsubr
            -1034 -1351 rmoveto
            -96 callsubr
            hintmask 1100011000000000
            -81 callsubr
            hintmask 1100101000000000
            -4 callgsubr
            hintmask 1100011000000000
            -88 callgsubr
          </CharString>
          <CharString index="19">
            rmoveto
            178 hlineto
            343 323 -115 77 -300 -206 -217 206 -116 -83 rlineto
            return
          </CharString>
          <CharString index="20">
            77 457 -105 callgsubr
            return
          </CharString>
          <CharString index="21">
            -201 1 109 -72 161 hhcurveto
            158 136 104 121 86 hvcurveto
            return
          </CharString>
          <CharString index="22">
            -2 122 11 -145 179 hhcurveto
            116 132 98 98 36 hvcurveto
            -102 117 rlineto
            -50 -40 -38 -60 -79 -101 -29 147 -163 hhcurveto
            return
          </CharString>
          <CharString index="23">
            -38 callgsubr
            157 1140 rlineto
            -277 hlineto
            return
          </CharString>
          <CharString index="24">
            209 -18 193 -193 217 -196 -21 1158 -20 35 -20 hstemhm
            86 1220 hintmask 00000000
            hintmask 00101100
            86 -372 rmoveto
            260 hlineto
            64 430 rlineto
            -55 29 95 -21 43 hhcurveto
            135 69 58 82 66 hvcurveto
            -104 15 69 -36 91 hhcurveto
            156 90 103 42 38 hvcurveto
            hintmask 10010100
            -70 120 rlineto
            -41 -35 -41 -31 -38 hhcurveto
            -21 -19 31 52 7 hvcurveto
            112 882 rlineto
            -273 hlineto
            -101 -768 rlineto
            hintmask 01001100
            -89 -34 -112 -84 -77 hhcurveto
            -75 -70 40 152 17 hvcurveto
            -1 67 511 6 52 vhcurveto
            142 18 -86 60 -102 hhcurveto
            -153 -121 -105 -21 -18 hvcurveto
            56 -140 rlineto
            25 25 29 25 37 hhcurveto
            28 5 -56 -57 -8 hvcurveto
            endchar
          </CharString>
          <CharString index="25">
            239 109 -12 callgsubr
            39 -4 -10 35 vhcurveto
            -67 -480 rlineto
            return
          </CharString>
          <CharString index="26">
            20 130 59 65 83 1 63 1 44 -26 18 -15 rrcurveto
            return
          </CharString>
          <CharString index="27">
            1242 rmoveto
            178 hlineto
            343 341 -115 77 -294 -217 -233 217 -106 -78 rlineto
            return
          </CharString>
          <CharString index="28">
            rmoveto
            104 84 -311 426 -181 -169 50 -90 236 -211 102 -40 rlinecurve
            endchar
          </CharString>
          <CharString index="29">
            504 0 202 -202 207 1123 216 hstemhm
            166 259 848 267 hintmask 00000000
            hintmask 10111000
            63 hmoveto
            555 hlineto
            65 164 rlineto
            -125 80 -133 267 263 vvcurveto
            400 203 156 253 178 214 -119 -324 -302 -173 -309 -213 -112 vhcurveto
            45 -164 rlineto
            576 hlineto
            hintmask 01111000
            20 207 rlineto
            -338 hlineto
            221 189 129 307 234 vvcurveto
            389 -276 220 -355 -450 -293 -236 -511 vhcurveto
            hintmask 10111000
            -225 113 -231 141 -141 vhcurveto
            -331 hlineto
            endchar
          </CharString>
          <CharString index="30">
            113 hmoveto
            -38 callgsubr
            206 -57 callsubr
            -33 callsubr
            return
          </CharString>
          <CharString index="31">
            -2 122 11 -140 180 hhcurveto
            115 132 98 98 37 hvcurveto
            -102 117 rlineto
            -50 -40 -39 -60 -78 hhcurveto
            return
          </CharString>
          <CharString index="32">
            -58 callgsubr
            16 callsubr
            hintmask 00000000
            hintmask 10110000
            399 -16 rmoveto
            160 117 121 112 65 hvcurveto
            hintmask 01110000
            -14 -217 rlineto
            246 hlineto
            159 1156 -149 -39 rlineto
            19 -63 -97 20 -77 hhcurveto
            -459 -211 -31 callgsubr
            hvcurveto
            hintmask 10110000
            -81 callgsubr
            hintmask 01110000
            -82 callsubr
            hintmask 10110000
            -126 -56 -111 -180 -120 hhcurveto
            return
          </CharString>
          <CharString index="33">
            1682 -22 callsubr
            66 -1 rrcurveto
            hintmask 00100010
            -76 callsubr
            hintmask 00011010
            -56 callgsubr
            return
          </CharString>
          <CharString index="34">
            211 rmoveto
            -104 callgsubr
            return
          </CharString>
          <CharString index="35">
            rmoveto
            180 179 94 197 165 -118 86 -173 -158 -210 -81 -210 -161 113 -90 187 hvcurveto
            13 125 rmoveto
            -78 -68 59 76 122 97 36 84 80 63 -55 -77 -131 -88 -30 -90 hvcurveto
            return
          </CharString>
          <CharString index="36">
            -4 44 52 -3 33 hhcurveto
            522 -6 294 437 -5 512 rrcurveto
            368 -3 -161 251 -415 hhcurveto
            return
          </CharString>
          <CharString index="37">
            -1 rmoveto
            301 1 148 341 rlineto
            561 hlineto
            return
          </CharString>
          <CharString index="38">
            rmoveto
            166 113 155 138 65 hvcurveto
            -164 45 123 -129 226 hhcurveto
            227 171 136 82 58 hvcurveto
            -73 141 rlineto
            -86 -82 -132 -75 -114 hhcurveto
            -151 -29 113 109 3 hvcurveto
            281 50 359 130 316 vvcurveto
            151 -97 105 -214 -104 -96 -25 -47 -83 vhcurveto
            55 -89 -91 17 -95 hhcurveto
            -477 -218 -6 callsubr
            76 -185 232 hvcurveto
            616 579 rmoveto
            return
          </CharString>
          <CharString index="39">
            rmoveto
            123 hlineto
            59 87 -5 -4 57 hvcurveto
            hintmask 01100010
            -71 callsubr
            hintmask 10100010
            -91 -160 -15 -1 -91 hvcurveto
            -139 hlineto
            99 -1316 rmoveto
            hintmask 10010010
            149 1112 rlineto
            -66 callsubr
            rrcurveto
            hintmask 10100010
            -9 callgsubr
          </CharString>
          <CharString index="40">
            -245 91 -185 232 return
          </CharString>
          <CharString index="41">
            9 41 78 8 48 hhcurveto
            251 106 -98 -323 3 hvcurveto
            3 -368 -149 -359 -334 -6 return
          </CharString>
          <CharString index="42">
            -15 -230 rlineto
            247 hlineto
            216 1636 rlineto
            -270 hlineto
            -67 -490 rlineto
            hintmask 01100100
            -29 callsubr
            hintmask 10100100
            -42 callgsubr
            hintmask 01100100
            -43 callsubr
            hintmask 10100100
            -8 callsubr
            return
          </CharString>
          <CharString index="43">
            rmoveto
            208 hlineto
            233 1290 rlineto
            -295 hlineto
            -257 -1665 rmoveto
            -83 -5 59 -56 84 hhcurveto
            108 81 73 110 6 hvcurveto
            74 4 -38 63 -106 hhcurveto
            -107 -80 -83 -98 -6 hvcurveto
            return
          </CharString>
          <CharString index="44">
            87 594 -106 callsubr
            return
          </CharString>
          <CharString index="45">
            102 76 105 76 79 25 callsubr
            -23 -165 -28 -14 callsubr
            -88 80 -157 -150 -139 -92 -126 -99 vhcurveto
            157 -20 -85 61 -136 hhcurveto
            -151 -142 -94 -129 -98 hvcurveto
            return
          </CharString>
          <CharString index="46">
            hlineto
            178 1325 386 -11 30 216 rlineto
            -1055 hlineto
            -33 -216 393 11 return
          </CharString>
          <CharString index="47">
            150 20 -21 22 -21 341 196 993 -20 return
          </CharString>
          <CharString index="48">
            -21 1140 -20 return
          </CharString>
          <CharString index="49">
            -21 -50 callgsubr
            return
          </CharString>
          <CharString index="50">
            1530 return
          </CharString>
          <CharString index="51">
            rmoveto
            813 hlineto
            12 202 -504 -29 rlineto
            294 170 211 209 229 vvcurveto
            149 -134 127 -242 -2 vhcurveto
            -200 -1 -173 -112 -58 -80 91 -119 rcurveline
            69 70 102 49 123 hhcurveto
            88 65 -37 -99 -196 -451 -307 -166 -87 hvcurveto
            return
          </CharString>
          <CharString index="52">
            231 -16 209 1142 211 return
          </CharString>
          <CharString index="53">
            272 hlineto
            214 1636 rlineto
            -272 hlineto
            477 -1634 rmoveto
            318 hlineto
            -345 609 93 49 129 107 82 145 rlinecurve
            46 72 31 71 7 85 rrcurveto
            -270 hlineto
            -29 -90 -40 -69 -51 -70 -77 -123 -81 -91 -114 -64 2 -1 rcurveline
            -2 hlineto
            endchar
          </CharString>
          <CharString index="54">
            rrcurveto
            -126 -3 -75 -26 -93 hhcurveto
            -31 -27 6 9 -17 hvcurveto
            return
          </CharString>
          <CharString index="55">
            -24 86 rlineto
            -937 hlineto
            -34 -226 639 12 -114 -113 -777 -1114 rlineto
            return
          </CharString>
          <CharString index="56">
            247 -16 216 1330 -20 return
          </CharString>
          <CharString index="57">
            6 callsubr
            223 1634 rlineto
            -277 hlineto
            return
          </CharString>
          <CharString index="58">
            rmoveto
            -49 callgsubr
            hintmask 10101000
            54 285 rlineto
            hintmask 11001000
            -28 callgsubr
            hintmask 10101000
            8 callgsubr
          </CharString>
          <CharString index="59">
            -99 callgsubr
            endchar
          </CharString>
          <CharString index="60">
            134 63 -177 178 hhcurveto
            148 145 110 110 29 hvcurveto
            -103 106 rlineto
            -70 -48 -63 -42 -81 hhcurveto
            return
          </CharString>
          <CharString index="61">
            119 77 123 95 87 5 callgsubr
            -1 -66 -14 -110 -18 -133 -22 -165 -29 -191 -21 -154 rrcurveto
            -38 callgsubr
            21 145 30 196 23 170 13 93 11 83 7 64 rrcurveto
            return
          </CharString>
          <CharString index="62">
            -349 -346 rlineto
            endchar
          </CharString>
          <CharString index="63">
            303 hlineto
            189 356 rlineto
            475 hlineto
            -48 -356 rlineto
            945 hlineto
            26 223 -667 -13 64 474 432 -12 24 221 -429 -6 58 432 571 -5 22 216 rlineto
            -1444 hlineto
            return
          </CharString>
          <CharString index="64">
            239 114 -27 callgsubr
            44 38 -7 -11 33 vhcurveto
            -64 -469 rlineto
            return
          </CharString>
          <CharString index="65">
            -81 -16 198 802 172 return
          </CharString>
          <CharString index="66">
            1750 -35 callgsubr
            return
          </CharString>
          <CharString index="67">
            hmoveto
            -38 callsubr
          </CharString>
          <CharString index="68">
            -276 hlineto
            return
          </CharString>
          <CharString index="69">
            -91 callsubr
            endchar
          </CharString>
          <CharString index="70">
            rmoveto
            543 hlineto
            11 179 rlineto
            -543 hlineto
            return
          </CharString>
          <CharString index="71">
            rmoveto
            -23 callgsubr
            hintmask 11001000
            571 787 rlineto
            hintmask 10101000
            -52 callgsubr
            endchar
          </CharString>
          <CharString index="72">
            54 68 rmoveto
            51 -18 40 -75 -88 vvcurveto
            -110 -67 -109 -97 -49 vhcurveto
            -3 -21 83 -108 rlineto
            198 66 129 186 222 vvcurveto
            102 -43 156 -153 58 vhcurveto
            -131 -158 rlineto
            return
          </CharString>
          <CharString index="73">
            rmoveto
            621 -388 90 142 -389 326 470 331 -48 160 -717 -396 rlineto
            return
          </CharString>
          <CharString index="74">
            rlineto
            -39 callsubr
            return
          </CharString>
          <CharString index="75">
            185 -5 -15 callsubr
            return
          </CharString>
          <CharString index="76">
            -91 -160 -15 -1 -91 hvcurveto
            -139 hlineto
            -87 -643 rlineto
            -160 hlineto
            -20 -190 rlineto
            155 hlineto
            211 -483 rmoveto
            65 483 rlineto
            343 hlineto
            21 190 rlineto
            -339 hlineto
            return
          </CharString>
          <CharString index="77">
            -60 -509 208 304 -21 1158 -20 return
          </CharString>
          <CharString index="78">
            6 -38 -39 4 -35 hhcurveto
            -459 -216 -31 callgsubr
            hvcurveto
            return
          </CharString>
          <CharString index="79">
            -125 -57 -16 -117 hhcurveto
            -152 hlineto
            182 -700 rmoveto
            return
          </CharString>
          <CharString index="80">
            -93 -694 rmoveto
            67 499 rlineto
            2 33 44 3 79 hhcurveto
            194 98 -62 -163 2 hvcurveto
            -227 2 -154 -64 -217 hhcurveto
            -36 -69 2 10 -43 hvcurveto
            endchar
          </CharString>
          <CharString index="81">
            133 54 vvcurveto
            216 return
          </CharString>
          <CharString index="82">
            21 -21 62 165 468 164 -150 165 469 163 24 -20 hstemhm
            152 198 343 208 204 198 344 207 return
          </CharString>
          <CharString index="83">
            -69 -1080 rlineto
            277 hlineto
            30 -57 callsubr
            rlineto
            -402 hlineto
            -391 -1056 -49 -197 -11 197 -114 1056 rlineto
            -385 hlineto
            endchar
          </CharString>
          <CharString index="84">
            -21 22 -21 613 214 520 199 -16 -20 return
          </CharString>
          <CharString index="85">
            rmoveto
            40 42 44 49 return
          </CharString>
          <CharString index="86">
            -301 -362 1959 hstem
            -118 1086 vstem
            105 -362 rmoveto
            863 1959 rlineto
            -224 hlineto
            -862 -1959 rlineto
            endchar
          </CharString>
          <CharString index="87">
            -38 callgsubr
            69 510 rlineto
            -3 24 65 -3 82 hhcurveto
            394 245 261 367 -4 hvcurveto
            279 -2 -179 135 -316 hhcurveto
            return
          </CharString>
          <CharString index="88">
            -121 -78 172 -173 hhcurveto
            -148 -147 -116 -99 -32 hvcurveto
            return
          </CharString>
          <CharString index="89">
            7 callgsubr
            hintmask 00010100
            -45 callsubr
          </CharString>
          <CharString index="90">
            124 -12 callsubr
          </CharString>
          <CharString index="91">
            -224 -16 203 757 212 return
          </CharString>
          <CharString index="92">
            -21 hstemhm
            129 792 return
          </CharString>
          <CharString index="93">
            -191 -21 -154 rrcurveto
            -38 callgsubr
            21 145 30 196 23 170 rrcurveto
            23 160 17 -26 callsubr
            return
          </CharString>
          <CharString index="94">
            -180 0 214 715 211 -48 48 return
          </CharString>
          <CharString index="95">
            -98 callsubr
            endchar
          </CharString>
          <CharString index="96">
            150 104 -7 rlineto
            265 hlineto
            26 210 rlineto
            -265 hlineto
            -106 -10 27 151 26 255 rlineto
            -225 hlineto
            return
          </CharString>
          <CharString index="97">
            rmoveto
            -3 callgsubr
          </CharString>
          <CharString index="98">
            -65 callgsubr
            hstem
            return
          </CharString>
          <CharString index="99">
            -125 -55 -117 -186 -123 hhcurveto
            return
          </CharString>
          <CharString index="100">
            3 0 225 1085 220 -86 86 return
          </CharString>
          <CharString index="101">
            -31 callgsubr
            -245 return
          </CharString>
          <CharString index="102">
            -21 954 186 return
          </CharString>
          <CharString index="103">
            -88 callsubr
            endchar
          </CharString>
          <CharString index="104">
            hintmask 10110000
            97 13 callgsubr
            hintmask 01001000
            return
          </CharString>
          <CharString index="105">
            10 210 rlineto
            -251 hlineto
            -221 -1643 rlineto
            273 hlineto
            93 677 rmoveto
            66 480 rlineto
            return
          </CharString>
          <CharString index="106">
            rmoveto
            1 callsubr
            return
          </CharString>
          <CharString index="107">
            hmoveto
            1 callsubr
            return
          </CharString>
          <CharString index="108">
            -38 callgsubr
            84 613 rlineto
            63 117 -1 0 hvcurveto
            62 -3 63 -127 49 -176 rrcurveto
            return
          </CharString>
          <CharString index="109">
            -92 callgsubr
            endchar
          </CharString>
          <CharString index="110">
            16 212 rlineto
            -263 hlineto
            return
          </CharString>
          <CharString index="111">
            -16 223 1107 232 return
          </CharString>
          <CharString index="112">
            -13 -92 -4 -63 -13 vvcurveto
            return
          </CharString>
          <CharString index="113">
            rmoveto
            -38 callgsubr
            return
          </CharString>
          <CharString index="114">
            424 287 142 363 -3 hvcurveto
            -1 167 -115 117 -172 29 rrcurveto
            return
          </CharString>
          <CharString index="115">
            194 52 111 146 -2 207 rrcurveto
            178 -1 -107 160 -371 hhcurveto
            return
          </CharString>
          <CharString index="116">
            639 16 -21 1535 -20 return
          </CharString>
          <CharString index="117">
            12 callgsubr
            -16 -20 36 -20 return
          </CharString>
          <CharString index="118">
            hintmask 0000000000000000
            return
          </CharString>
          <CharString index="119">
            113 482 return
          </CharString>
          <CharString index="120">
            140 -1109 265 15 437 1107 105 284 -26 -308 rlineto
            return
          </CharString>
          <CharString index="121">
            -533 -521 171 1490 -20 return
          </CharString>
          <CharString index="122">
            21 -5 callsubr
            return
          </CharString>
          <CharString index="123">
            hstemhm
            76 287 return
          </CharString>
          <CharString index="124">
            hstemhm
            80 291 return
          </CharString>
          <CharString index="125">
            -200 103 -136 198 vhcurveto
            36 165 rmoveto
            -88 -51 74 107 hvcurveto
            return
          </CharString>
          <CharString index="126">
            -42 -114 0 3 -53 hvcurveto
            return
          </CharString>
          <CharString index="127">
            hstemhm
            182 268 return
          </CharString>
          <CharString index="128">
            192 30 177 rlineto
            -220 hlineto
            -24 -177 -12 -192 rlineto
            return
          </CharString>
          <CharString index="129">
            -15 195 -159 -21 696 188 470 192 -16 -20 return
          </CharString>
          <CharString index="130">
            83 hmoveto
            271 hlineto
            97 713 rlineto
            return
          </CharString>
          <CharString index="131">
            hlineto
            -26 -210 rlineto
            237 hlineto
            132 7 -25 -150 rlineto
            return
          </CharString>
          <CharString index="132">
            5 callgsubr
            -2 -66 -14 -110 -18 -133 return
          </CharString>
          <CharString index="133">
            274 hlineto
            243 1086 56 302 19 -297 rlineto
            return
          </CharString>
          <CharString index="134">
            -104 -102 -15 -1 -95 hvcurveto
            -141 hlineto
            189 -644 rmoveto
            return
          </CharString>
          <CharString index="135">
            -37 callgsubr
            endchar
          </CharString>
          <CharString index="136">
            21 -21 504 210 635 197 -16 -20 return
          </CharString>
          <CharString index="137">
            225 1305 -20 return
          </CharString>
          <CharString index="138">
            203 -56 203 hstemhm
            return
          </CharString>
          <CharString index="139">
            hhcurveto
            -442 -294 -426 -526 5 hvcurveto
            return
          </CharString>
          <CharString index="140">
            735 3 -21 39 -21 1388 142 return
          </CharString>
          <CharString index="141">
            rmoveto
            60 43 63 53 81 hhcurveto
            return
          </CharString>
          <CharString index="142">
            -390 -486 vhcurveto
            142 hmoveto
            413 return
          </CharString>
          <CharString index="143">
            67 -86 hhcurveto
            -93 return
          </CharString>
        <CharString name=".notdef">
          717 0 219 hstem
          221 229 960 227 vstem
          221 hmoveto
          1416 1416 -1416 hlineto
          230 -1053 rmoveto
          358 342 -359 363 123 125 357 -368 352 366 128 -124 -363 -358 363 -368 -122 -122 -362 368 -347 -368 rlineto
          endchar
        </CharString>
        <CharString name=".null">
          endchar
        </CharString>
        <CharString name="A">
          -60 callsubr
          20 callgsubr
          hintmask 00000000
          hintmask 10111000
          -100 -70 callsubr
          hintmask 01111000
          -92 callsubr
          endchar
        </CharString>
        <CharString name="AE">
          719 26 callgsubr
          -197 198 -162 162 -135 135 hstemhm
          -125 1965 hintmask 00000000
          hintmask 11110001
          -125 hmoveto
          -44 callsubr
          hintmask 11100011
          -21 -135 rlineto
          hintmask 11100101
          267 -27 rlineto
          -169 -811 rmoveto
          hintmask 11101001
          30 callgsubr
        </CharString>
        <CharString name="AEacute">
          725 26 callgsubr
          -161 162 -135 135 156 -21 hstemhm
          -119 1965 -813 444 hintmask 0000001010000000
          1141 -70 callgsubr
          11 callsubr
          -1152 -1665 rmoveto
          -44 callsubr
          hintmask 1111000100000000
          -21 -135 rlineto
          hintmask 1110010100000000
          267 -27 rlineto
          -169 -811 rmoveto
          hintmask 1110100100000000
          30 callgsubr
        </CharString>
        <CharString name="Aacute">
          -60 callsubr
          176 -21 20 callgsubr
          -499 444 hintmask 00000000
          hintmask 10110100
          -100 -70 callsubr
          hintmask 01110100
          -92 callsubr
          hintmask 00001010
          -38 1035 -93 callgsubr
          endchar
        </CharString>
        <CharString name="Abreve">
          -60 callsubr
          121 182 20 callgsubr
          -722 168 hintmask 00000000
          hintmask 10110100
          -100 -70 callsubr
          hintmask 01110100
          -92 callsubr
          hintmask 00001010
          -57 1094 -107 callsubr
          endchar
        </CharString>
        <CharString name="Acircumflex">
          -60 callsubr
          178 -21 20 callgsubr
          -776 729 hintmask 00000000
          hintmask 10110100
          -100 -70 callsubr
          hintmask 01110100
          -92 callsubr
          hintmask 00000000
          -310 1052 rmoveto
          -91 callgsubr
          hintmask 00001010
          -45 callsubr
        </CharString>
        <CharString name="Adieresis">
          -60 callsubr
          20 callgsubr
          hintmask 00000000
          hintmask 10111000
          -100 -70 callsubr
          hintmask 01111000
          -92 callsubr
          hintmask 00000000
          151 1127 -72 callgsubr
        </CharString>
        <CharString name="Agrave">
          -60 callsubr
          176 -21 20 callgsubr
          -759 444 hintmask 00000000
          hintmask 10110100
          -100 -70 callsubr
          hintmask 01110100
          -92 callsubr
          hintmask 00001010
          -70 1035 -30 callgsubr
        </CharString>
        <CharString name="Amacron">
          -60 callsubr
          208 179 20 callgsubr
          -700 556 hintmask 00000000
          hintmask 10110100
          -100 -70 callsubr
          hintmask 01110100
          -92 callsubr
          hintmask 00001010
          -347 1181 28 callsubr
        </CharString>
        <CharString name="Aogonek">
          156 37 callgsubr
          302 -21 22 -21 341 196 993 -20 hstemhm
          650 317 -238 255 hintmask 00000000
          hintmask 11011010
          -94 -70 callsubr
          48 -342 rlineto
          24 hlineto
          -87 -43 -172 -114 -141 vvcurveto
          -84 70 -90 133 131 95 49 60 61 vhcurveto
          -46 137 rlineto
          hintmask 10111100
          -42 -56 -40 -13 -45 hhcurveto
          -31 -34 13 56 69 121 89 105 55 hvcurveto
          48 hlineto
          hintmask 10111010
          -257 -57 callsubr
          rlineto
          hintmask 10111100
          -334 hlineto
          -210 -993 rmoveto
          296 679 47 121 10 -118 95 -682 rlineto
          endchar
        </CharString>
        <CharString name="Aring">
          150 20 -21 22 -21 341 196 1348 122 hstemhm
          492 168 298 194 -169 252 hintmask 00000000
          hintmask 10111100
          -100 -70 callsubr
          hintmask 01111100
          48 -342 rlineto
          hintmask 01111010
          277 1 -253 1505 rlineto
          hintmask 01111100
          99 44 71 83 126 vvcurveto
          163 -119 86 -172 -159 -210 -79 -210 -105 50 -75 87 -38 vhcurveto
          hintmask 01111010
          177 92 rmoveto
          -78 -68 59 76 122 97 36 83 80 63 -55 -77 -131 -88 -30 -89 hvcurveto
          -372 -1055 rmoveto
          296 679 47 121 10 -118 95 -682 rlineto
          endchar
        </CharString>
        <CharString name="Atilde">
          -60 callsubr
          120 -25 callgsubr
          -100 1335 -800 844 11 callsubr
          hintmask 1011000100000000
          -100 -70 callsubr
          hintmask 0111000100000000
          -92 callsubr
          11 callsubr
          -350 1145 -22 callsubr
          66 -1 rrcurveto
          hintmask 0000011010000000
          -76 callsubr
          hintmask 0000100010000000
          -56 callgsubr
          endchar
        </CharString>
        <CharString name="B">
          141 22 callsubr
          hstemhm
          910 293 -266 281 hintmask 00000000
          hintmask 01110100
          91 hmoveto
          124 hlineto
          72 129 -15 79 hhcurveto
          hintmask 10110100
          7 callsubr
          hintmask 10110010
          8 callsubr
          hintmask 10101100
          27 callsubr
          hintmask 10110010
          -10 callgsubr
          hintmask 10101100
          -41 -48 0 2 -42 hvcurveto
          hintmask 10110100
          -27 callsubr
        </CharString>
        <CharString name="C">
          12 4 callsubr
          hstem
          95 282 vstem
          618 -16 -98 callgsubr
          endchar
        </CharString>
        <CharString name="CR">
          endchar
        </CharString>
        <CharString name="Cacute">
          18 4 callsubr
          140 -21 hstemhm
          101 282 384 444 hintmask 11010000
          624 -16 -98 callgsubr
          hintmask 00101000
          251 1588 -93 callgsubr
          endchar
        </CharString>
        <CharString name="Ccaron">
          18 4 callsubr
          61 400 hstemhm
          101 282 125 748 hintmask 11010000
          624 -16 -98 callgsubr
          hintmask 00101000
          111 1623 -4 callsubr
        </CharString>
        <CharString name="Ccedilla">
          18 -466 194 282 -21 1325 232 hstem
          101 282 163 207 vstem
          300 -257 rmoveto
          -67 callgsubr
          63 -13 75 -19 51 hvcurveto
          186 17 118 65 35 27 -38 208 rcurveline
          -35 -45 -134 -64 -154 hhcurveto
          -214 -90 169 261 -2 hvcurveto
          295 -3 116 382 344 hhcurveto
          157 82 -59 -27 36 hvcurveto
          86 250 -54 16 rlineto
          22 -60 -83 30 -142 hhcurveto
          -443 -323 -397 -523 5 hvcurveto
          3 -292 107 -304 334 -41 2 -32 0 -40 -1 -37 -53 callsubr
          endchar
        </CharString>
        <CharString name="Ccircumflex">
          18 4 callsubr
          142 -21 hstemhm
          101 282 106 729 hintmask 11010000
          624 -16 -98 callgsubr
          hintmask 00000000
          -22 1605 rmoveto
          -91 callgsubr
          hintmask 00101000
          -45 callsubr
        </CharString>
        <CharString name="Cdotaccent">
          18 4 callsubr
          129 -21 hstemhm
          101 282 315 329 hintmask 00101000
          842 1654 -98 callsubr
          hintmask 11010000
          -218 -1670 -98 callgsubr
          endchar
        </CharString>
        <CharString name="D">
          245 -1 callgsubr
          hstemhm
          1072 24 callgsubr
          hintmask 01101000
          91 hmoveto
          123 hlineto
          59 87 -5 -4 57 hvcurveto
          hintmask 10101000
          -71 callsubr
          hintmask 10011000
          -91 -160 -15 -1 -91 hvcurveto
          -139 hlineto
          99 -1316 rmoveto
          hintmask 10101000
          149 1112 rlineto
          -66 callsubr
          rrcurveto
          hintmask 10011000
          -9 callgsubr
        </CharString>
        <CharString name="DC1">
          endchar
        </CharString>
        <CharString name="DC2">
          endchar
        </CharString>
        <CharString name="DC3">
          endchar
        </CharString>
        <CharString name="DC4">
          endchar
        </CharString>
        <CharString name="DEL">
          endchar
        </CharString>
        <CharString name="DLE">
          endchar
        </CharString>
        <CharString name="Dcaron">
          251 -1 callgsubr
          97 400 hstemhm
          475 748 -145 285 hintmask 00001100
          702 1607 -88 callsubr
          hintmask 00000000
          -378 -1924 -68 callsubr
        </CharString>
        <CharString name="Dcroat">
          0 callgsubr
          hintmask 01110100
          97 1 rmoveto
          146 hlineto
          57 -1 73 -4 50 -4 rrcurveto
          hintmask 10110100
          -71 callsubr
          hintmask 01101100
          -31 callsubr
          59 439 rlineto
          hintmask 10110100
          -66 callsubr
          -9 callgsubr
        </CharString>
        <CharString name="Delta">
          -40 callgsubr
        </CharString>
        <CharString name="E">
          -60 callgsubr
          hstem
          91 1047 vstem
          91 hmoveto
          946 -97 callsubr
          endchar
        </CharString>
        <CharString name="Eacute">
          -60 callgsubr
          157 -21 hstemhm
          91 1047 -479 444 hintmask 00010100
          767 -70 callgsubr
          hintmask 11101000
          -568 -1665 rmoveto
          946 -97 callsubr
          endchar
        </CharString>
        <CharString name="Ebreve">
          -60 callgsubr
          102 182 hstemhm
          91 1047 -702 168 hintmask 00010100
          748 -89 callgsubr
          hintmask 11101000
          -657 -1631 rmoveto
          946 -97 callsubr
          endchar
        </CharString>
        <CharString name="Ecaron">
          -60 callgsubr
          78 400 hstemhm
          91 1047 -738 748 hintmask 00010100
          627 1607 -88 callsubr
          hintmask 11101000
          -309 -1924 rmoveto
          946 -97 callsubr
          endchar
        </CharString>
        <CharString name="Ecircumflex">
          -60 callgsubr
          159 -21 hstemhm
          91 1047 -756 729 hintmask 11101000
          91 hmoveto
          946 -97 callsubr
          hintmask 00000000
          198 -18 callsubr
        </CharString>
        <CharString name="Edieresis">
          -60 callgsubr
          156 -21 hstemhm
          91 1047 -759 9 callgsubr
          hintmask 00010110
          956 1664 -100 callsubr
          hintmask 11101000
          -420 -1664 rmoveto
          946 -97 callsubr
          endchar
        </CharString>
        <CharString name="Edotaccent">
          -60 callgsubr
          146 -21 hstemhm
          91 1047 -547 329 hintmask 00010100
          735 1654 -98 callsubr
          hintmask 11101000
          -644 -1654 rmoveto
          946 -97 callsubr
          endchar
        </CharString>
        <CharString name="Egrave">
          -60 callgsubr
          157 -21 hstemhm
          91 1047 -739 444 hintmask 00010100
          735 1572 -78 callgsubr
          hintmask 11101000
          -644 -1572 rmoveto
          946 -97 callsubr
          endchar
        </CharString>
        <CharString name="Emacron">
          -60 callgsubr
          189 179 hstemhm
          91 1047 -680 556 hintmask 00010100
          458 1718 -37 callgsubr
          hintmask 11101000
          -379 -1897 rmoveto
          946 -97 callsubr
          endchar
        </CharString>
        <CharString name="Eng">
          359 -9 callsubr
          97 1323 vstem
          97 hmoveto
          262 hlineto
          120 921 12 287 76 -254 388 -921 -35 -125 -89 -98 -179 -67 rlinecurve
          46 -108 274 30 181 141 59 194 rlinecurve
          2 hlineto
          206 -57 callsubr
          rlineto
          -265 hlineto
          -110 -906 -16 -254 -71 233 -398 927 rlineto
          -257 hlineto
          endchar
        </CharString>
        <CharString name="Eogonek">
          22 37 callgsubr
          282 216 462 212 426 213 hstem
          557 238 vstem
          97 hmoveto
          721 hlineto
          -86 callgsubr
          22 -97 callsubr
          endchar
        </CharString>
        <CharString name="Eth">
          0 callgsubr
          hintmask 00000000
          hintmask 01110100
          97 1 rmoveto
          146 hlineto
          57 -1 73 -4 50 -4 rrcurveto
          hintmask 10110100
          -71 callsubr
          hintmask 10101100
          -31 callsubr
          hintmask 10110100
          59 439 rlineto
          -66 callsubr
          rrcurveto
          hintmask 10101100
          -9 callgsubr
        </CharString>
        <CharString name="Euro">
          234 -16 190 365 162 176 161 307 201 hstem
          24 1253 vstem
          24 539 rmoveto
          203 hlineto
          -283 26 141 -272 342 hhcurveto
          206 168 61 80 71 hvcurveto
          -63 169 rlineto
          -62 -84 -96 -58 -155 hhcurveto
          -179 -82 139 226 -15 hvcurveto
          509 hlineto
          17 162 rlineto
          -526 hlineto
          3 62 7 59 10 55 rrcurveto
          529 hlineto
          19 161 rlineto
          -506 hlineto
          190 70 123 117 172 hhcurveto
          141 107 -39 -28 26 hvcurveto
          69 214 rlineto
          23 -75 -78 31 -161 hhcurveto
          -309 -253 -194 -314 -114 hvcurveto
          -198 hlineto
          -20 -161 rlineto
          174 hlineto
          -11 -56 -6 -59 -3 -61 rrcurveto
          -179 hlineto
          endchar
        </CharString>
        <CharString name="F">
          32 callgsubr
          hstem
          91 1030 vstem
          91 hmoveto
          -17 callgsubr
        </CharString>
        <CharString name="G">
          229 -16 -20 callgsubr
          hstem
          92 280 vstem
          92 617 -101 callsubr
          endchar
        </CharString>
        <CharString name="Gbreve">
          235 -16 -20 callgsubr
          85 182 hstemhm
          98 280 210 168 hintmask 00010100
          900 -89 callgsubr
          hintmask 11101000
          -802 -1014 -101 callsubr
          endchar
        </CharString>
        <CharString name="Gcircumflex">
          235 -16 -20 callgsubr
          142 -21 hstemhm
          98 280 156 729 hintmask 11101000
          98 617 -101 callsubr
          hintmask 00000000
          549 972 rmoveto
          -91 callgsubr
          hintmask 00010100
          -45 callsubr
        </CharString>
        <CharString name="Gcommaaccent">
          235 -21 callgsubr
          484 -20 callgsubr
          hstemhm
          98 280 243 225 hintmask 11000010
          560 -156 -103 callgsubr
          hintmask 00111100
          -602 661 -101 callsubr
          endchar
        </CharString>
        <CharString name="Gdotaccent">
          235 -16 -20 callgsubr
          129 -21 hstemhm
          98 280 365 329 hintmask 00010100
          887 1654 -98 callsubr
          hintmask 11101000
          -789 -1037 -101 callsubr
          endchar
        </CharString>
        <CharString name="H">
          300 21 -21 658 197 675 -20 hstem
          85 1328 vstem
          85 -29 callgsubr
          endchar
        </CharString>
        <CharString name="HT">
          endchar
        </CharString>
        <CharString name="Hbar">
          306 21 -21 517 200 241 200 372 -20 hstem
          26 1551 vstem
          97 hmoveto
          -38 callgsubr
          69 517 rlineto
          568 hlineto
          -69 -517 rlineto
          278 hlineto
          129 958 rlineto
          209 hlineto
          20 200 rlineto
          -202 hlineto
          50 372 rlineto
          -278 hlineto
          -50 -372 rlineto
          -568 hlineto
          50 372 -33 callsubr
          -50 -372 rlineto
          -208 hlineto
          -19 -200 rlineto
          200 hlineto
          243 -241 rmoveto
          33 241 rlineto
          568 hlineto
          -33 -241 rlineto
          endchar
        </CharString>
        <CharString name="Hcircumflex">
          306 21 -21 658 197 675 -20 178 -21 hstemhm
          91 1328 -911 729 hintmask 11101000
          91 -29 callgsubr
          hintmask 00000000
          324 -18 callsubr
        </CharString>
        <CharString name="I">
          -512 -9 callsubr
          12 callsubr
          vstem
          -77 callsubr
          endchar
        </CharString>
        <CharString name="IJ">
          134 -65 callgsubr
          11 callgsubr
          -121 767 hintmask 11100000
          -77 callsubr
          hintmask 01010000
          447 -1444 -62 callgsubr
          endchar
        </CharString>
        <CharString name="Iacute">
          -512 14 callgsubr
          113 482 -200 444 hintmask 11010000
          -77 callsubr
          hintmask 00101000
          184 42 -93 callgsubr
          endchar
        </CharString>
        <CharString name="Ibreve">
          -512 -65 callgsubr
          121 182 11 callgsubr
          -423 168 hintmask 11010000
          -77 callsubr
          hintmask 00101000
          165 101 -107 callsubr
          endchar
        </CharString>
        <CharString name="Icircumflex">
          -512 -65 callgsubr
          178 -21 11 callgsubr
          -477 729 hintmask 11010000
          -77 callsubr
          hintmask 00000000
          -88 7 callgsubr
          hintmask 00101000
          -45 callsubr
        </CharString>
        <CharString name="Idieresis">
          -512 -65 callgsubr
          11 callgsubr
          vstemhm
          -77 callsubr
          373 134 -72 callgsubr
        </CharString>
        <CharString name="Idotaccent">
          -512 -65 callgsubr
          165 -21 11 callgsubr
          -268 329 hintmask 11010000
          -77 callsubr
          hintmask 00101000
          152 -17 callsubr
        </CharString>
        <CharString name="Igrave">
          -512 14 callgsubr
          113 482 -460 444 hintmask 11010000
          -77 callsubr
          hintmask 00101000
          152 42 -30 callgsubr
        </CharString>
        <CharString name="Imacron">
          -512 -65 callgsubr
          208 179 11 callgsubr
          -401 556 hintmask 11010000
          -77 callsubr
          hintmask 00101000
          -125 188 28 callsubr
        </CharString>
        <CharString name="Iogonek">
          -512 37 callgsubr
          303 -58 callsubr
          hstem
          -142 238 vstem
          113 hmoveto
          6 hlineto
          -86 callgsubr
          67 hlineto
          206 -57 callsubr
          -33 callsubr
          endchar
        </CharString>
        <CharString name="Itilde">
          -512 -65 callgsubr
          120 -25 callgsubr
          94 844 -825 482 hintmask 11000010
          -77 callsubr
          hintmask 00000000
          -128 152 -22 callsubr
          66 -1 rrcurveto
          hintmask 00011100
          -76 callsubr
          hintmask 00100100
          -56 callgsubr
          endchar
        </CharString>
        <CharString name="J">
          -515 -50 callgsubr
          hstem
          -175 767 vstem
          117 86 -62 callgsubr
          endchar
        </CharString>
        <CharString name="Jcircumflex">
          -509 -50 callgsubr
          178 -21 hstemhm
          -169 767 -488 729 hintmask 10100000
          123 86 -62 callgsubr
          hintmask 00000000
          100 1503 rmoveto
          -91 callgsubr
          hintmask 01010000
          -45 callsubr
        </CharString>
        <CharString name="K">
          136 20 -21 22 -58 callsubr
          hstemhm
          91 1303 hintmask 00000000
          hintmask 01110000
          91 hmoveto
          -38 callgsubr
          61 458 178 197 54 -113 75 -162 31 -57 rlinecurve
          hintmask 10110000
          -43 callgsubr
        </CharString>
        <CharString name="Kcommaaccent">
          142 -537 -21 81 -21 519 -58 callsubr
          hstemhm
          97 1303 -852 225 hintmask 11000100
          487 -154 -103 callgsubr
          hintmask 00000000
          -530 42 6 callsubr
          61 458 178 197 54 -113 75 -162 31 -57 rlinecurve
          hintmask 00111000
          -43 callgsubr
        </CharString>
        <CharString name="L">
          -132 0 30 callsubr
          hstem
          91 840 vstem
          91 13 callgsubr
          endchar
        </CharString>
        <CharString name="LF">
          endchar
        </CharString>
        <CharString name="Lacute">
          -126 0 30 callsubr
          178 -21 hstemhm
          97 840 -534 444 hintmask 00101000
          511 1574 -93 callgsubr
          hintmask 11010000
          -306 -1667 rmoveto
          -55 callgsubr
          endchar
        </CharString>
        <CharString name="Lcaron">
          -126 0 225 781 645 -121 -20 hstemhm
          97 840 -84 223 -3 callsubr
          640 -524 -83 callgsubr
        </CharString>
        <CharString name="Lcommaaccent">
          -126 -537 -21 81 -21 498 30 callsubr
          hstemhm
          97 840 -533 225 hintmask 11000100
          343 -154 -103 callgsubr
          hintmask 00111000
          -386 42 rmoveto
          -55 callgsubr
          endchar
        </CharString>
        <CharString name="Ldot">
          -19 0 225 544 -21 782 -20 hstemhm
          97 840 -153 322 -3 callsubr
          481 -649 -84 callgsubr
          endchar
        </CharString>
        <CharString name="Lslash">
          -126 1 30 callsubr
          hstem
          -41 978 vstem
          97 1 rmoveto
          808 hlineto
          32 229 -534 -8 59 438 435 165 -46 160 -365 -142 93 688 -33 callsubr
          -108 -801 -236 -91 47 -151 165 62 rlineto
          endchar
        </CharString>
        <CharString name="M">
          33 callsubr
          hstemhm
          9 1751 hintmask 00000000
          hintmask 01110000
          9 hmoveto
          26 callsubr
          hintmask 10110000
          13 callsubr
          hintmask 01110000
          -24 callsubr
        </CharString>
        <CharString name="N">
          295 -9 callsubr
          91 1323 vstem
          91 hmoveto
          -90 callsubr
        </CharString>
        <CharString name="Nacute">
          301 14 callgsubr
          97 1323 -626 444 hintmask 00101000
          902 -70 callgsubr
          hintmask 11010000
          -697 -1665 rmoveto
          -90 callsubr
        </CharString>
        <CharString name="Ncaron">
          301 -65 callgsubr
          97 400 hstemhm
          97 1323 -885 748 hintmask 00101000
          762 1607 -88 callsubr
          hintmask 11010000
          -438 -1924 rmoveto
          -90 callsubr
        </CharString>
        <CharString name="Ncommaaccent">
          301 -21 callgsubr
          521 -58 callsubr
          hstemhm
          97 1323 -832 225 hintmask 11000100
          527 -156 -103 callgsubr
          hintmask 00111000
          -570 44 rmoveto
          -90 callsubr
        </CharString>
        <CharString name="Ntilde">
          301 -65 callgsubr
          120 -25 callgsubr
          97 1323 -927 844 hintmask 00000000
          hintmask 00011010
          590 -74 callsubr
          hintmask 11000100
          -396 -1792 rmoveto
          -90 callsubr
        </CharString>
        <CharString name="O">
          -55 callsubr
          hstem
          87 285 678 285 vstem
          -63 callsubr
          endchar
        </CharString>
        <CharString name="OE">
          1004 -16 209 -193 216 462 212 426 213 -194 211 hstemhm
          87 24 callgsubr
          hintmask 10101100
          87 594 rmoveto
          -334 3 172 -276 347 hhcurveto
          206 170 92 151 122 hvcurveto
          hintmask 01110100
          -30 -227 rlineto
          946 -97 callsubr
          -34 -248 rlineto
          hintmask 01101100
          159 -79 -141 105 -211 hhcurveto
          hintmask 10101100
          -442 -294 -426 -526 5 hvcurveto
          552 -401 rmoveto
          -176 -87 120 309 -4 hvcurveto
          343 -3 161 370 253 hhcurveto
          176 88 -117 -309 3 hvcurveto
          -356 3 -161 -360 -253 hhcurveto
          endchar
        </CharString>
        <CharString name="Oacute">
          -55 callsubr
          140 -21 17 callgsubr
          404 444 -170 285 hintmask 00101000
          884 -70 callgsubr
          hintmask 11010100
          -689 -1071 -106 callsubr
          endchar
        </CharString>
        <CharString name="Obreve">
          -55 callsubr
          85 182 17 callgsubr
          180 168 330 285 hintmask 00101000
          864 -89 callgsubr
          hintmask 11010100
          -777 -1037 -106 callsubr
          endchar
        </CharString>
        <CharString name="Ocircumflex">
          -55 callsubr
          142 -21 17 callgsubr
          126 729 -177 -66 callgsubr
          hintmask 00000000
          -28 1396 rmoveto
          -91 callgsubr
          hintmask 00101000
          -45 callsubr
        </CharString>
        <CharString name="Odieresis">
          -55 callsubr
          139 -21 17 callgsubr
          123 302 144 303 -194 24 callgsubr
          hintmask 00101100
          1072 1664 -100 callsubr
          hintmask 11010010
          -540 -1070 -106 callsubr
          endchar
        </CharString>
        <CharString name="Ograve">
          -55 callsubr
          140 -21 17 callgsubr
          144 444 90 285 hintmask 00101000
          852 1572 -78 callgsubr
          hintmask 11010100
          -765 -978 -106 callsubr
          endchar
        </CharString>
        <CharString name="Ohungarumlaut">
          -55 callsubr
          110 -21 17 callgsubr
          143 910 -375 -66 callgsubr
          hintmask 00101000
          426 1367 -64 callgsubr
        </CharString>
        <CharString name="Omacron">
          -55 callsubr
          172 179 17 callgsubr
          203 556 -81 285 hintmask 00101000
          575 1718 -37 callgsubr
          hintmask 11010100
          -500 -1303 -106 callsubr
          endchar
        </CharString>
        <CharString name="Omega">
          -78 callsubr
        </CharString>
        <CharString name="Oslash">
          231 -15 209 1142 211 hstem
          87 285 678 285 vstem
          99 -83 rmoveto
          89 -49 130 202 rlineto
          -54 78 96 -31 117 hhcurveto
          445 285 429 521 -4 hvcurveto
          -2 187 -54 169 -108 113 136 217 rcurveline
          -89 49 -125 -201 rlineto
          49 -75 -91 29 -109 32 callsubr
          1 -182 52 -164 103 -112 rrcurveto
          163 231 rmoveto
          -22 64 -11 84 -1 107 rrcurveto
          343 -3 161 370 253 hhcurveto
          70 57 -19 -43 42 hvcurveto
          -492 -1007 rmoveto
          551 910 25 -66 13 -87 1 -114 rlinecurve
          -356 3 -161 -360 -253 hhcurveto
          -76 -59 22 51 -44 hvcurveto
          endchar
        </CharString>
        <CharString name="Otilde">
          -55 callsubr
          84 -25 callgsubr
          87 285 102 844 -268 24 callgsubr
          hintmask 00011010
          571 -74 callsubr
          hintmask 11000101
          -387 -1198 -106 callsubr
          endchar
        </CharString>
        <CharString name="P">
          84 29 callsubr
          hstemhm
          967 275 hintmask 00000000
          hintmask 11101000
          91 hmoveto
          -20 callsubr
          hintmask 11011000
          27 callgsubr
          hintmask 11101000
          -14 callgsubr
          hintmask 11011000
          -50 -69 6 7 -29 hvcurveto
          endchar
        </CharString>
        <CharString name="Q">
          232 -390 231 168 -21 26 -21 1342 211 17 callgsubr
          152 193 333 24 callgsubr
          hintmask 11011110
          537 -12 rmoveto
          -280 -67 208 -98 212 hhcurveto
          120 173 35 45 54 hvcurveto
          178 vlineto
          -20 -64 -102 -7 -86 hhcurveto
          hintmask 10111110
          -145 -125 14 138 2 hvcurveto
          383 64 238 399 -3 478 rrcurveto
          334 -3 -171 278 -343 32 callsubr
          hintmask 11011110
          3 -310 148 -261 299 -35 rrcurveto
          hintmask 10111110
          102 205 rmoveto
          -176 -87 120 309 -4 hvcurveto
          343 -3 161 370 253 hhcurveto
          176 88 -117 -309 3 hvcurveto
          -356 3 -161 -360 -253 hhcurveto
          endchar
        </CharString>
        <CharString name="R">
          152 20 -23 callsubr
          hstemhm
          976 280 hintmask 00000000
          hintmask 01110100
          90 0 callsubr
          hintmask 10110100
          -76 callgsubr
          hintmask 01101100
          -28 callsubr
          hintmask 01110100
          -59 callgsubr
          hintmask 01101100
          19 callsubr
          endchar
        </CharString>
        <CharString name="RS">
          endchar
        </CharString>
        <CharString name="Racute">
          158 20 -23 callsubr
          176 -21 hstemhm
          713 444 -175 280 hintmask 00000000
          hintmask 01110001
          96 0 callsubr
          hintmask 10110001
          -76 callgsubr
          hintmask 01101001
          -28 callsubr
          hintmask 01110001
          -59 callgsubr
          hintmask 01101001
          19 callsubr
          hintmask 00000110
          337 742 -93 callgsubr
          endchar
        </CharString>
        <CharString name="Rcaron">
          158 20 -23 callsubr
          97 400 hstemhm
          454 748 -220 280 hintmask 00000110
          681 1607 -88 callsubr
          hintmask 00000000
          -358 -1924 -1 callsubr
          hintmask 01110001
          -76 callgsubr
          hintmask 10110001
          -28 callsubr
          hintmask 01101001
          -59 callgsubr
          hintmask 01110001
          19 callsubr
          endchar
        </CharString>
        <CharString name="Rcommaaccent">
          158 -21 callgsubr
          520 -23 callsubr
          hstemhm
          550 225 207 280 hintmask 1100000100000000
          489 -156 -103 callgsubr
          11 callsubr
          -533 44 -1 callsubr
          hintmask 0001110010000000
          -76 callgsubr
          hintmask 0010110010000000
          -28 callsubr
          hintmask 0001101010000000
          -59 callgsubr
          hintmask 0001110010000000
          19 callsubr
          endchar
        </CharString>
        <CharString name="S">
          -104 4 callgsubr
          hstem
          176 268 220 284 vstem
          12 78 -74 callgsubr
        </CharString>
        <CharString name="Sacute">
          -98 4 callgsubr
          140 -21 20 callsubr
          157 444 -381 284 hintmask 11010100
          18 78 -105 callsubr
          hintmask 00101000
          609 1270 -93 callgsubr
          endchar
        </CharString>
        <CharString name="Scaron">
          -98 4 callgsubr
          61 400 20 callsubr
          -102 748 -426 284 hintmask 11010100
          18 78 -105 callsubr
          hintmask 00101000
          469 1305 -4 callsubr
        </CharString>
        <CharString name="Scedilla">
          -98 -468 194 259 218 -197 -21 32 -21 1335 215 20 callsubr
          -73 207 86 284 hintmask 00000000
          hintmask 10101011
          18 78 rmoveto
          43 -36 161 -52 154 -5 2 -32 0 -39 -1 -36 -53 callsubr
          -67 callgsubr
          hvcurveto
          hintmask 10011011
          67 -16 81 -20 50 vhcurveto
          245 41 162 149 -1 254 -2 199 -158 126 -132 97 rrcurveto
          hintmask 11001101
          -140 101 -77 69 5 128 rrcurveto
          121 4 105 50 124 hhcurveto
          88 120 -30 -56 55 hvcurveto
          87 216 rlineto
          37 -51 -120 48 -181 hhcurveto
          -296 -206 -164 -269 3 hvcurveto
          2 -204 146 -135 137 -97 155 -109 49 -71 -1 -100 rrcurveto
          -130 -1 -105 -64 -155 hhcurveto
          -114 -139 54 45 -50 hvcurveto
          endchar
        </CharString>
        <CharString name="Scircumflex">
          -98 4 callgsubr
          142 -21 20 callsubr
          -121 729 -388 284 hintmask 11010100
          18 78 -105 callsubr
          hintmask 00000000
          336 1287 rmoveto
          -91 callgsubr
          hintmask 00101000
          -45 callsubr
        </CharString>
        <CharString name="T">
          -17 21 31 callgsubr
          hstem
          133 1088 vstem
          348 hmoveto
          279 -61 callsubr
          rlineto
          endchar
        </CharString>
        <CharString name="Tbar">
          -11 21 -21 679 190 450 210 hstem
          139 1088 vstem
          354 hmoveto
          279 hlineto
          91 679 rlineto
          261 hlineto
          23 190 rlineto
          -259 hlineto
          62 456 386 -11 30 216 rlineto
          -1055 hlineto
          -33 -216 393 11 -62 -456 rlineto
          -251 hlineto
          -23 -190 rlineto
          249 hlineto
          endchar
        </CharString>
        <CharString name="Tcaron">
          -11 21 31 callgsubr
          78 400 hstemhm
          139 1088 -842 748 hintmask 00101000
          612 1607 -88 callsubr
          hintmask 11010000
          -31 -1924 rmoveto
          279 -61 callsubr
          rlineto
          endchar
        </CharString>
        <CharString name="Thorn">
          103 21 -21 264 211 620 198 237 -20 hstem
          939 274 vstem
          93 hmoveto
          280 hlineto
          36 275 rlineto
          -3 26 63 -8 80 hhcurveto
          394 245 260 361 -4 hvcurveto
          273 -2 -179 135 -316 hhcurveto
          -62 -58 -4 -5 -53 hvcurveto
          33 246 rlineto
          -279 hlineto
          140 -1043 rmoveto
          79 595 rlineto
          1 hlineto
          9 44 67 4 40 hhcurveto
          200 77 -85 -149 -6 hvcurveto
          -8 -244 -110 -141 -237 -1 -49 -1 -68 5 -30 8 rrcurveto
          endchar
        </CharString>
        <CharString name="U">
          -51 callsubr
          hstem
          131 282 vstem
          -85 callgsubr
          endchar
        </CharString>
        <CharString name="US">
          endchar
        </CharString>
        <CharString name="Uacute">
          -51 callsubr
          176 -21 -5 callgsubr
          346 444 hintmask 00101000
          867 -70 callgsubr
          hintmask 11010000
          -628 -1235 -106 callgsubr
          endchar
        </CharString>
        <CharString name="Ubreve">
          -51 callsubr
          121 182 -5 callgsubr
          123 168 hintmask 00101000
          848 -89 callgsubr
          hintmask 11010000
          -717 -1201 -106 callgsubr
          endchar
        </CharString>
        <CharString name="Ucircumflex">
          -51 callsubr
          178 -21 -5 callgsubr
          69 729 hintmask 11010000
          -85 callgsubr
          hintmask 00000000
          464 1159 rmoveto
          -91 callgsubr
          hintmask 00101000
          -45 callsubr
        </CharString>
        <CharString name="Udieresis">
          -51 callsubr
          175 -21 -5 callgsubr
          66 9 callgsubr
          hintmask 00101100
          1056 1664 -100 callsubr
          hintmask 11010000
          -480 -1234 -106 callgsubr
          endchar
        </CharString>
        <CharString name="Ugrave">
          -51 callsubr
          176 -21 -5 callgsubr
          86 444 hintmask 00101000
          835 1572 -78 callgsubr
          hintmask 11010000
          -704 -1142 -106 callgsubr
          endchar
        </CharString>
        <CharString name="Uhungarumlaut">
          -51 callsubr
          146 -21 -5 callgsubr
          85 910 hintmask 11010000
          -85 callgsubr
          hintmask 00101000
          917 1130 -64 callgsubr
        </CharString>
        <CharString name="Umacron">
          -51 callsubr
          208 179 -5 callgsubr
          145 556 hintmask 00101000
          558 1718 -37 callgsubr
          hintmask 11010000
          -439 -1467 -106 callgsubr
          endchar
        </CharString>
        <CharString name="Uogonek">
          253 37 callgsubr
          266 216 1330 -20 hstemhm
          137 282 -144 438 -237 75 hintmask 00000000
          hintmask 11110100
          137 430 rmoveto
          -276 3 154 -170 324 hhcurveto
          33 32 2 2 31 hvcurveto
          -91 -50 -147 -111 -126 vvcurveto
          -84 70 -90 133 130 95 49 60 62 vhcurveto
          -46 137 rlineto
          hintmask 11101000
          -42 -56 -40 -13 -46 hhcurveto
          -31 -34 13 56 52 111 114 94 82 hvcurveto
          193 80 111 179 43 318 122 918 rcurveline
          -273 hlineto
          -119 -891 rlineto
          -326 -45 -103 -113 -188 hhcurveto
          hintmask 11110100
          -160 -77 71 172 -3 hvcurveto
          57 3 62 9 73 vhcurveto
          120 895 rlineto
          hintmask 11101000
          -39 callsubr
          hintmask 11110100
          -125 -935 -8 -59 -6 -54 1 -52 rlinecurve
          endchar
        </CharString>
        <CharString name="Uring">
          247 -16 216 1269 123 -62 -20 375 122 -5 callgsubr
          110 168 323 169 hintmask 10101000
          -85 callgsubr
          hintmask 01010110
          697 1039 -48 callgsubr
        </CharString>
        <CharString name="Utilde">
          -51 callsubr
          120 -25 callgsubr
          131 282 45 844 hintmask 00000000
          hintmask 00011010
          555 -74 callsubr
          hintmask 11000100
          -327 -1362 -106 callgsubr
          endchar
        </CharString>
        <CharString name="V">
          46 -9 callsubr
          116 1227 vstem
          354 hmoveto
          311 hlineto
          678 -57 callsubr
          rlineto
          -292 hlineto
          -416 -1040 -82 -242 -21 242 -140 1040 -33 callsubr
          endchar
        </CharString>
        <CharString name="W">
          633 16 -21 1535 -20 hstem
          112 1833 vstem
          320 -5 -94 callsubr
          endchar
        </CharString>
        <CharString name="Wacute">
          9 callsubr
          176 19 callgsubr
          -985 444 hintmask 00101000
          1074 -70 callgsubr
          hintmask 11010000
          -640 -1670 -94 callsubr
          endchar
        </CharString>
        <CharString name="Wcircumflex">
          9 callsubr
          178 19 callgsubr
          -1263 729 hintmask 11010000
          326 -5 -94 callsubr
          hintmask 00000000
          683 7 callgsubr
          hintmask 00101000
          -45 callsubr
        </CharString>
        <CharString name="Wdieresis">
          9 callsubr
          175 19 callgsubr
          -1266 9 callgsubr
          hintmask 00101100
          1262 1664 -100 callsubr
          hintmask 11010000
          -491 -1669 -94 callsubr
          endchar
        </CharString>
        <CharString name="Wgrave">
          9 callsubr
          176 19 callgsubr
          -1245 444 hintmask 00101000
          1042 1572 -78 callgsubr
          hintmask 11010000
          -716 -1577 -94 callsubr
          endchar
        </CharString>
        <CharString name="X">
          46 -9 callsubr
          -79 1401 vstem
          -79 hmoveto
          318 hlineto
          358 575 225 -576 307 1 -347 744 540 786 rlineto
          -305 hlineto
          -353 -545 -203 545 rlineto
          -299 hlineto
          320 -729 rlineto
          endchar
        </CharString>
        <CharString name="Y">
          -31 -9 callsubr
          83 1214 vstem
          349 -79 callgsubr
          endchar
        </CharString>
        <CharString name="Yacute">
          -25 14 callgsubr
          89 1214 -681 444 hintmask 11010000
          355 -79 callgsubr
          hintmask 00101000
          295 982 -93 callgsubr
          endchar
        </CharString>
        <CharString name="Ycircumflex">
          -25 -65 callgsubr
          178 -21 hstemhm
          89 1214 -958 729 hintmask 11010000
          355 -79 callgsubr
          hintmask 00000000
          23 999 rmoveto
          -91 callgsubr
          hintmask 00101000
          -45 callsubr
        </CharString>
        <CharString name="Ydieresis">
          -25 -65 callgsubr
          hstemhm
          89 1214 vstemhm
          355 -79 callgsubr
          484 1074 -72 callgsubr
        </CharString>
        <CharString name="Ygrave">
          -25 14 callgsubr
          89 1214 -941 444 hintmask 11010000
          355 -79 callgsubr
          hintmask 00101000
          263 982 -30 callgsubr
        </CharString>
        <CharString name="Z">
          -7 callsubr
          hstemhm
          -27 1247 hintmask 00000000
          hintmask 11010000
          1 hmoveto
          -22 callgsubr
          hintmask 10110000
          761 1114 rlineto
          hintmask 11010000
          -52 callsubr
          endchar
        </CharString>
        <CharString name="Zacute">
          -7 callsubr
          156 -21 hstemhm
          -27 1247 -541 444 hintmask 00000000
          hintmask 11001000
          1 hmoveto
          -22 callgsubr
          hintmask 10101000
          761 1114 rlineto
          hintmask 11001000
          -52 callsubr
          hintmask 00010100
          814 1483 -93 callgsubr
          endchar
        </CharString>
        <CharString name="Zcaron">
          -7 callsubr
          77 400 hstemhm
          -27 1247 -800 748 hintmask 00010100
          647 1607 -88 callsubr
          hintmask 00000000
          -419 -1924 -36 callgsubr
        </CharString>
        <CharString name="Zdotaccent">
          -7 callsubr
          145 -21 hstemhm
          -27 1247 -609 329 hintmask 00010100
          755 1654 -98 callsubr
          hintmask 00000000
          -754 -1654 -36 callgsubr
        </CharString>
        <CharString name="a">
          -75 callsubr
          endchar
        </CharString>
        <CharString name="aacute">
          -58 callgsubr
          78 510 16 callsubr
          268 501 -101 callgsubr
          256 1054 2 callsubr
        </CharString>
        <CharString name="abreve">
          -58 callgsubr
          144 182 16 callsubr
          90 168 -101 callgsubr
          286 1120 -107 callsubr
          endchar
        </CharString>
        <CharString name="acircumflex">
          -58 callgsubr
          58 446 16 callsubr
          20 729 -101 callgsubr
          12 1034 -45 callgsubr
        </CharString>
        <CharString name="acute">
          -593 1234 510 hstem
          34 501 vstem
          138 1234 2 callsubr
        </CharString>
        <CharString name="acute.cap">
          -626 1686 -21 hstem
          50 444 vstem
          158 -70 callgsubr
          endchar
        </CharString>
        <CharString name="adieresis">
          -75 callsubr
          hintmask 00000000
          501 1183 -48 callsubr
        </CharString>
        <CharString name="ae">
          547 -16 198 -198 207 789 176 -172 172 6 callgsubr
          1007 270 hintmask 00000000
          hintmask 10101100
          383 -16 -69 callsubr
          hintmask 10011100
          158 11 92 263 165 hhcurveto
          64 38 -29 -81 hvcurveto
          hintmask 10101100
          -179 -230 -125 -140 -7 vhcurveto
          hintmask 01101100
          -32 callgsubr
        </CharString>
        <CharString name="aeacute">
          547 -16 198 798 176 -172 172 78 510 6 callgsubr
          478 501 28 270 hintmask 00010100
          944 1234 -92 callgsubr
          hintmask 00000000
          -457 -1335 -69 callsubr
          hintmask 11001010
          158 11 92 263 165 hhcurveto
          64 38 -29 -81 hvcurveto
          hintmask 10101010
          -179 -230 -125 -140 -7 vhcurveto
          hintmask 11001010
          -32 callgsubr
        </CharString>
        <CharString name="afii61352">
          1350 0 183 358 164 664 163 hstem
          1574 249 399 252 vstem
          1574 992 rmoveto
          -252 -15 125 -199 265 hhcurveto
          286 222 216 326 17 hvcurveto
          253 15 -124 196 -265 hhcurveto
          -287 -223 -214 -326 -16 hvcurveto
          -1447 -992 rmoveto
          255 hlineto
          115 894 22 297 79 -265 385 -926 rlineto
          248 hlineto
          193 -57 callsubr
          rlineto
          -258 hlineto
          -105 -889 -20 -255 -75 232 -380 912 rlineto
          -266 hlineto
          1503 -545 rmoveto
          12 220 79 163 152 1 112 1 55 -110 -11 -174 -11 -220 -75 -160 -155 -1 -112 -1 -57 112 11 169 rrcurveto
          -305 -985 rmoveto
          813 hlineto
          15 183 rlineto
          -813 hlineto
          endchar
        </CharString>
        <CharString name="agrave">
          -58 callgsubr
          78 510 16 callsubr
          -26 492 -101 callgsubr
          246 1054 -79 callsubr
        </CharString>
        <CharString name="amacron">
          -58 callgsubr
          259 179 16 callsubr
          111 554 -101 callgsubr
          -5 1235 -37 callsubr
          endchar
        </CharString>
        <CharString name="ampersand">
          395 -18 170 -169 188 468 191 540 176 hstemhm
          50 275 -26 255 324 255 -31 254 hintmask 00000000
          hintmask 01111010
          50 365 rmoveto
          -272 252 -110 327 127 117 20 38 102 vhcurveto
          -41 80 100 -18 70 hhcurveto
          54 101 5 14 46 hvcurveto
          hintmask 10111001
          31 150 rlineto
          -19 -22 0 1 -16 hvcurveto
          -81 1 -61 12 -53 23 rrcurveto
          95 99 56 133 166 vvcurveto
          19 -1 18 -2 16 vhcurveto
          151 hlineto
          14 190 -367 1 rlineto
          -89 -44 -19 -21 -19 hvcurveto
          -10 -179 22 13 36 9 43 4 rlinecurve
          7 -30 5 -34 -41 vvcurveto
          -89 -28 -72 -47 -56 vhcurveto
          -130 120 -109 151 -90 150 rrcurveto
          hintmask 01110110
          211 119 224 134 249 vvcurveto
          136 -101 172 -279 -281 -173 -187 -241 -102 37 -130 47 -105 vhcurveto
          hintmask 01111010
          -177 -99 -156 -119 -198 vvcurveto
          hintmask 01110110
          557 537 rmoveto
          -26 61 -27 85 92 vvcurveto
          125 67 105 109 100 48 -64 -99 -135 -121 -87 -150 -83 vhcurveto
          hintmask 01111010
          -282 -520 rmoveto
          91 63 70 92 64 vhcurveto
          90 -150 74 -118 155 -152 rrcurveto
          -11 -47 -51 -5 -52 hhcurveto
          -169 -155 48 163 hvcurveto
          endchar
        </CharString>
        <CharString name="aogonek">
          66 37 callgsubr
          266 196 -159 -21 980 176 hstemhm
          84 287 138 238 hintmask 00000000
          hintmask 11011100
          407 -16 rmoveto
          160 117 121 112 65 hvcurveto
          hintmask 10111100
          -14 -217 rlineto
          35 hlineto
          -86 callgsubr
          8 hlineto
          159 1156 -149 -39 rlineto
          19 -63 -97 20 -77 hhcurveto
          -459 -211 -31 callgsubr
          hvcurveto
          hintmask 11011100
          -81 callgsubr
          hintmask 10111100
          -82 callsubr
          hintmask 11011100
          -126 -56 -111 -180 -120 hhcurveto
          endchar
        </CharString>
        <CharString name="approxequal">
          -92 261 214 -37 209 85 214 -37 209 hstemhm
          25 994 -934 994 hintmask 00000000
          hintmask 01001000
          135 325 34 callsubr
          hintmask 10001000
          -47 callsubr
          hintmask 01001000
          -19 callsubr
          hintmask 00000000
          170 364 34 callsubr
          hintmask 00010100
          -47 callsubr
          hintmask 00100100
          -19 callsubr
          endchar
        </CharString>
        <CharString name="aring">
          -58 callgsubr
          97 125 293 124 16 callsubr
          108 167 324 168 -71 callgsubr
          hintmask 00011011
          292 1073 -72 callsubr
          endchar
        </CharString>
        <CharString name="asciicircum">
          209 1531 -20 hstem
          151 1015 vstem
          151 510 rmoveto
          225 hlineto
          388 739 181 -739 rlineto
          221 hlineto
          -262 1021 rlineto
          -232 hlineto
          endchar
        </CharString>
        <CharString name="asciitilde">
          -18 696 214 -37 209 hstemhm
          104 994 hintmask 00000000
          hintmask 01100000
          214 760 34 callsubr
          hintmask 10100000
          -47 callsubr
          hintmask 01100000
          -19 callsubr
          endchar
        </CharString>
        <CharString name="asterisk">
          211 1149 -20 21 -20 hstemhm
          192 1078 hintmask 00000000
          hintmask 01100000
          567 614 rmoveto
          221 -1 -7 312 -11 141 102 -91 229 -186 133 187 rlineto
          hintmask 10100000
          -277 123 -125 50 135 51 303 125 -87 188 -274 -188 -121 -88 38 139 68 311 rlineto
          -215 hlineto
          3 -311 6 -139 -99 88 -238 187 -122 -187 rlineto
          hintmask 01100000
          277 -125 125 -50 -136 -51 -303 -123 92 -189 270 188 116 91 -35 -141 rlineto
          endchar
        </CharString>
        <CharString name="at">
          843 -440 179 268 221 -217 193 721 177 279 164 hstemhm
          112 198 229 237 412 196 330 204 11 callsubr
          hintmask 1011111110000000
          112 374 rmoveto
          -517 340 -297 467 171 163 46 70 92 vhcurveto
          -46 134 rlineto
          -32 -65 -145 -39 -152 hhcurveto
          -328 -299 178 491 483 324 490 527 297 256 -109 -412 -314 -158 -342 -159 -9 -4 10 17 40 0 26 11 103 hvcurveto
          19 201 41 324 39 153 -180 -30 rcurveline
          39 -56 -109 15 -55 hhcurveto
          -370 -179 -357 -306 -6 hvcurveto
          hintmask 1101111110000000
          -297 -6 164 -135 135 hhcurveto
          148 130 151 213 90 hvcurveto
          -6 -59 -6 -70 -47 vvcurveto
          hintmask 1011111110000000
          -104 20 -80 85 278 347 323 565 394 -273 252 -439 -608 -486 -447 -724 vhcurveto
          hintmask 1101111110000000
          664 92 rmoveto
          194 101 265 192 47 75 -17 -42 31 vhcurveto
          -202 -26 -196 -436 -116 hhcurveto
          -86 -22 105 133 hvcurveto
          endchar
        </CharString>
        <CharString name="atilde">
          -58 callgsubr
          168 31 callsubr
          76 287 -19 844 -71 callgsubr
          hintmask 00000000
          -38 1201 -22 callsubr
          67 -1 rrcurveto
          hintmask 00001010
          -85 callsubr
          hintmask 00010010
          -19 callgsubr
        </CharString>
        <CharString name="b">
          33 callgsubr
          hstemhm
          857 288 hintmask 00000000
          hintmask 01110000
          80 -8 rmoveto
          hintmask 10110000
          146 33 rlineto
          -20 63 101 -21 80 -82 callgsubr
          endchar
        </CharString>
        <CharString name="backslash">
          -301 -362 1959 hstem
          16 798 vstem
          592 -362 rmoveto
          222 hlineto
          -577 1959 rlineto
          -221 hlineto
          endchar
        </CharString>
        <CharString name="bar">
          25 callgsubr
          -186 rmoveto
          213 1966 -213 hlineto
          endchar
        </CharString>
        <CharString name="braceleft">
          -131 -231 188 1633 184 hstem
          106 919 vstem
          234 -70 rmoveto
          -110 -1 47 -51 136 hhcurveto
          124 104 31 31 92 hvcurveto
          0 14 111 3 15 vhcurveto
          -275 hlineto
          93 612 8 51 -19 27 -30 31 rlinecurve
          -29 30 -78 35 -59 31 rrcurveto
          0 146 55 29 17 vhcurveto
          53 33 32 32 8 54 95 625 rcurveline
          -38 callgsubr
          1 10 21 122 0 vvcurveto
          0 -195 52 -100 -167 -61 -59 -198 -32 vhcurveto
          -82 -528 -4 -23 -26 -26 -35 -19 rlinecurve
          -52 -27 -75 -17 -65 -16 -25 -163 rcurveline
          59 -14 63 -20 43 -29 rrcurveto
          32 -21 20 -29 -22 vvcurveto
          0 -88 -604 -1 -29 vhcurveto
          endchar
        </CharString>
        <CharString name="braceright">
          -131 -228 184 1633 188 hstem
          48 919 vstem
          839 1616 rmoveto
          110 1 -47 51 -136 hhcurveto
          -124 -104 -31 -31 -92 hvcurveto
          0 -14 -111 -3 -15 vhcurveto
          275 hlineto
          -93 -612 -8 -51 19 -27 30 -31 rlinecurve
          29 -30 78 -35 59 -31 rrcurveto
          0 -146 -55 -29 -17 vhcurveto
          -53 -33 -32 -32 -8 -54 -95 -625 rcurveline
          -39 callsubr
          -1 -10 -21 -122 0 vvcurveto
          0 195 -52 100 167 61 59 198 32 vhcurveto
          82 528 4 23 26 26 35 19 rlinecurve
          52 27 75 17 65 16 25 163 rcurveline
          -59 14 -63 20 -43 29 rrcurveto
          -32 21 -20 29 22 vvcurveto
          0 88 604 1 29 vhcurveto
          endchar
        </CharString>
        <CharString name="bracketleft">
          -301 -225 181 1635 178 hstem
          155 747 vstem
          155 -62 rmoveto
          -110 59 -53 126 134 83 26 26 91 vhcurveto
          1 14 13 101 2 14 rrcurveto
          -44 -177 1 -44 hhcurveto
          218 1634 rlineto
          265 hlineto
          20 131 rlineto
          0 -182 47 -113 -158 -59 -79 -192 -26 vhcurveto
          -30 -227 -162 -1039 -11 -184 rrcurveto
          -4 -40 -2 -36 -34 vvcurveto
          endchar
        </CharString>
        <CharString name="bracketright">
          -301 -213 178 1635 181 hstem
          14 747 vstem
          761 1618 rmoveto
          110 -59 53 -126 -134 -83 -26 -26 -91 vhcurveto
          -1 -14 -13 -101 -2 -14 rrcurveto
          44 177 -1 44 hhcurveto
          -218 -1634 rlineto
          -265 hlineto
          -20 -131 rlineto
          0 182 -47 113 158 59 79 192 26 vhcurveto
          30 227 162 1039 11 184 rrcurveto
          4 40 2 36 34 vvcurveto
          endchar
        </CharString>
        <CharString name="breve">
          -434 1300 182 hstem
          43 168 vstem
          355 1300 -107 callsubr
          endchar
        </CharString>
        <CharString name="breve.cap">
          -436 1631 182 hstem
          43 168 vstem
          355 -89 callgsubr
          endchar
        </CharString>
        <CharString name="brokenbar">
          25 callgsubr
          901 rmoveto
          213 879 -213 hlineto
          -1966 vmoveto
          213 879 -213 hlineto
          endchar
        </CharString>
        <CharString name="bullet">
          -297 507 432 hstem
          233 427 vstem
          409 507 rmoveto
          153 98 140 120 99 -75 73 -101 -142 -109 -136 -120 -97 76 -79 100 hvcurveto
          endchar
        </CharString>
        <CharString name="c">
          -16 callsubr
          hstem
          80 281 vstem
          80 438 -95 callsubr
          endchar
        </CharString>
        <CharString name="cacute">
          -16 callsubr
          78 510 hstemhm
          80 281 210 501 hintmask 00101000
          675 1234 -92 callgsubr
          hintmask 11010000
          -491 -881 -95 callsubr
          endchar
        </CharString>
        <CharString name="caron">
          -356 1242 418 hstem
          43 748 vstem
          270 -80 callsubr
          endchar
        </CharString>
        <CharString name="caron.cap">
          -358 1607 400 hstem
          53 748 vstem
          280 1607 -4 callsubr
        </CharString>
        <CharString name="caronvertical">
          -838 1036 645 hstem
          237 223 vstem
          327 1036 -83 callgsubr
        </CharString>
        <CharString name="ccaron">
          -16 callsubr
          86 418 hstemhm
          80 281 -10 748 hintmask 00101000
          578 -80 callsubr
          hintmask 11010000
          -271 -1144 -95 callsubr
          endchar
        </CharString>
        <CharString name="ccedilla">
          -224 -468 194 284 -21 27 -21 949 212 hstemhm
          80 281 48 207 hintmask 00000000
          hintmask 10111100
          163 -259 rmoveto
          -67 callgsubr
          66 -15 81 -20 50 hvcurveto
          143 30 97 88 43 63 -77 138 rcurveline
          -72 -71 -92 -55 -86 hhcurveto
          -123 -54 83 206 293 152 175 145 75 82 -52 -31 36 hvcurveto
          68 255 rlineto
          27 -58 -109 13 -72 hhcurveto
          -372 -228 -351 -367 hvcurveto
          hintmask 11011100
          -229 99 -190 229 -30 vhcurveto
          2 -32 0 -41 -1 -38 rrcurveto
          -126 -3 -75 -26 -93 hhcurveto
          hintmask 10111100
          -31 -27 6 9 -17 hvcurveto
          endchar
        </CharString>
        <CharString name="ccircumflex">
          -16 callsubr
          58 446 hstemhm
          80 281 -39 729 hintmask 00101000
          430 1214 -93 callsubr
          hintmask 11010000
          -242 -848 -95 callsubr
          endchar
        </CharString>
        <CharString name="cdotaccent">
          -16 callsubr
          195 315 hstemhm
          80 281 200 327 hintmask 11010000
          80 438 -95 callsubr
          hintmask 00101000
          623 913 rmoveto
          -104 callgsubr
          endchar
        </CharString>
        <CharString name="cedilla">
          -673 -468 194 hstem
          247 207 vstem
          241 30 rmoveto
          7 -29 1 -66 -2 -57 -53 callsubr
          -67 callgsubr
          85 -25 109 -28 38 hvcurveto
          -71 4 rlineto
          endchar
        </CharString>
        <CharString name="cent">
          -88 1153 -20 hstem
          114 281 vstem
          373 3 rmoveto
          -45 -248 rlineto
          195 hlineto
          42 233 172 18 113 100 48 70 rlinecurve
          -77 138 rlineto
          -72 -71 -92 -55 -86 hhcurveto
          -123 -54 83 206 293 152 175 145 75 82 -52 -31 36 hvcurveto
          68 255 -43 20 -69 12 -63 5 rlinecurve
          58 240 rlineto
          -195 hlineto
          -60 -253 rlineto
          -293 -72 -174 -309 -321 vvcurveto
          -205 79 -173 180 -57 vhcurveto
          endchar
        </CharString>
        <CharString name="circumflex">
          -356 1214 446 hstem
          42 729 vstem
          150 1214 -45 callgsubr
        </CharString>
        <CharString name="circumflex.cap">
          -356 1682 -21 27 -21 hstemhm
          34 729 hintmask 00000000
          hintmask 01100000
          147 1589 rmoveto
          -91 callgsubr
          hintmask 10100000
          -45 callsubr
        </CharString>
        <CharString name="colon">
          -629 -5 -21 830 -21 hstemhm
          39 322 -229 322 hintmask 10100000
          39 107 -84 callgsubr
          hintmask 01010000
          93 809 -84 callgsubr
          endchar
        </CharString>
        <CharString name="comma">
          -629 -489 -21 hstem
          145 243 vstem
          -35 callsubr
          endchar
        </CharString>
        <CharString name="commaaccent">
          -786 -21 callgsubr
          hstem
          90 225 vstem
          29 -156 -103 callgsubr
          endchar
        </CharString>
        <CharString name="copyright">
          955 83 129 263 185 612 181 260 126 hstem
          185 142 283 223 950 143 vstem
          185 963 rmoveto
          -487 384 -393 486 486 385 393 487 486 -385 390 -486 -486 -384 35 callsubr
          309 337 419 419 309 -337 -413 -414 -309 -337 -419 -419 -309 337 414 vhcurveto
          283 -8 rmoveto
          -253 1 169 -227 276 hhcurveto
          133 122 45 54 63 hvcurveto
          -44 148 rlineto
          -28 -45 -85 -34 -106 hhcurveto
          -153 -109 103 219 1 hvcurveto
          167 101 123 164 91 80 -26 -33 48 vhcurveto
          35 184 rlineto
          22 -38 -88 34 -120 hhcurveto
          -324 -173 -216 -282 1 hvcurveto
          endchar
        </CharString>
        <CharString name="currency">
          385 252 178 521 177 hstem
          342 191 498 191 vstem
          218 243 rmoveto
          128 -127 202 202 rlineto
          -42 68 80 -24 86 hhcurveto
          89 83 26 45 69 hvcurveto
          202 -202 128 127 -203 202 rlineto
          45 69 27 82 89 vvcurveto
          85 -25 80 -42 67 vhcurveto
          200 200 -127 128 -199 -198 rlineto
          48 -70 -85 28 -92 hhcurveto
          -88 -81 -26 -43 -68 hvcurveto
          -203 204 -127 -128 201 -201 rlineto
          -47 -70 -27 -84 -90 vvcurveto
          -92 28 -85 48 -70 vhcurveto
          115 247 rmoveto
          143 111 118 138 138 111 -118 -143 -142 -111 -118 -138 -138 -111 118 142 vhcurveto
          endchar
        </CharString>
        <CharString name="d">
          63 -7 callgsubr
          -10 -20 6 callgsubr
          hintmask 00000000
          hintmask 10101000
          -26 callgsubr
          hintmask 01011000
          -15 -230 rlineto
          247 hlineto
          216 1636 rlineto
          -270 hlineto
          -67 -490 rlineto
          hintmask 01101000
          -29 callsubr
          hintmask 10101000
          -42 callgsubr
          hintmask 01101000
          -43 callsubr
          hintmask 10101000
          -8 callsubr
          endchar
        </CharString>
        <CharString name="dagger">
          -340 1095 182 hstem
          129 751 vstem
          270 151 rmoveto
          167 hlineto
          149 825 11 119 rlineto
          256 hlineto
          27 182 rlineto
          -273 hlineto
          51 21 callsubr
          -275 hlineto
          -28 -182 rlineto
          259 hlineto
          -21 -119 rlineto
          endchar
        </CharString>
        <CharString name="daggerdbl">
          -340 603 176 316 182 hstem
          97 783 vstem
          259 -51 rmoveto
          144 hlineto
          109 482 15 172 rlineto
          239 hlineto
          24 176 rlineto
          -241 hlineto
          43 184 11 132 rlineto
          250 hlineto
          27 182 rlineto
          -266 hlineto
          50 21 callsubr
          -260 hlineto
          -26 -182 rlineto
          243 hlineto
          -28 -132 -10 -184 rlineto
          -233 hlineto
          -27 -176 rlineto
          229 hlineto
          -34 -178 rlineto
          endchar
        </CharString>
        <CharString name="dcaron">
          360 -7 callgsubr
          -135 645 -520 -20 6 callgsubr
          983 223 hintmask 00000000
          hintmask 10100100
          -26 callgsubr
          hintmask 01001100
          -65 callsubr
          hintmask 00010010
          957 839 -83 callgsubr
        </CharString>
        <CharString name="dcroat">
          63 -7 callgsubr
          -10 -20 136 130 6 callgsubr
          hintmask 00000000
          hintmask 10101100
          -26 callgsubr
          hintmask 01011100
          -15 -230 rlineto
          247 hlineto
          166 1262 rlineto
          148 hlineto
          16 130 rlineto
          -147 hlineto
          33 244 rlineto
          -270 hlineto
          -34 -244 rlineto
          -244 hlineto
          -16 -130 rlineto
          243 hlineto
          -16 -116 rlineto
          hintmask 01101100
          -29 callsubr
          hintmask 10101100
          -42 callgsubr
          hintmask 01101100
          -43 callsubr
          hintmask 10101100
          -8 callsubr
          endchar
        </CharString>
        <CharString name="degree">
          -227 935 154 375 153 hstem
          175 172 354 172 vstem
          512 935 rmoveto
          205 153 146 196 3 hvcurveto
          187 4 -148 153 -196 hhcurveto
          -204 -151 -147 -193 -3 hvcurveto
          -188 -3 145 -154 195 hhcurveto
          8 154 rmoveto
          -98 -77 85 103 2 hvcurveto
          107 2 75 80 103 hhcurveto
          99 77 -83 -104 -2 hvcurveto
          -108 -1 -76 -80 -104 hhcurveto
          endchar
        </CharString>
        <CharString name="dieresis">
          -342 1363 313 hstemhm
          27 303 144 303 hintmask 00000000
          hintmask 11100000
          605 1363 -48 callsubr
        </CharString>
        <CharString name="dieresis.cap">
          -344 1685 -21 hstemhm
          115 9 callgsubr
          hintmask 11100000
          692 1664 -72 callgsubr
        </CharString>
        <CharString name="divide">
          213 675 210 hstem
          233 941 vstem
          736 1041 rmoveto
          103 86 73 109 5 hvcurveto
          74 4 -40 63 -105 hhcurveto
          -102 -85 -83 -98 -5 hvcurveto
          -83 -4 60 -55 83 hhcurveto
          -503 -366 rmoveto
          915 hlineto
          26 210 -914 1 rlineto
          233 -550 rmoveto
          -83 -4 59 -55 84 hhcurveto
          104 84 73 109 5 hvcurveto
          74 4 -39 63 -105 hhcurveto
          -103 -84 -83 -98 -5 hvcurveto
          endchar
        </CharString>
        <CharString name="dollar">
          49 6 -21 1556 -20 hstem
          254 263 233 282 vstem
          101 73 rmoveto
          37 -31 132 -43 136 -14 -41 -238 rcurveline
          210 hlineto
          42 242 255 36 164 151 -4 261 rlinecurve
          -4 204 -160 127 -133 95 -156 115 -65 60 3 127 rrcurveto
          121 4 109 45 121 hhcurveto
          87 128 -31 -55 54 hvcurveto
          86 216 -43 30 -82 37 -126 13 rlinecurve
          37 220 rlineto
          -211 hlineto
          -38 -225 -234 -38 -160 -154 5 -230 rlinecurve
          4 -209 149 -135 139 -97 rrcurveto
          155 -107 49 -79 -100 vvcurveto
          -131 -111 -59 -155 -114 -134 52 45 -50 vhcurveto
          endchar
        </CharString>
        <CharString name="dotaccent">
          -765 1351 315 hstem
          31 327 vstem
          173 1351 rmoveto
          -104 callgsubr
          endchar
        </CharString>
        <CharString name="dotaccent.cap">
          -764 1675 -21 hstem
          27 329 vstem
          171 1654 -12 callsubr
        </CharString>
        <CharString name="dotlessi">
          -531 21 -59 callsubr
          hstem
          102 433 vstem
          102 hmoveto
          -3 callgsubr
        </CharString>
        <CharString name="dotlessj">
          14 callsubr
          hstem
          -252 786 vstem
          110 -77 callgsubr
          endchar
        </CharString>
        <CharString name="e">
          -42 callsubr
          hstem
          80 291 370 270 vstem
          80 438 -96 callgsubr
        </CharString>
        <CharString name="eacute">
          -42 callsubr
          78 510 17 callsubr
          189 501 -320 270 hintmask 00101000
          664 1234 -92 callgsubr
          hintmask 11010100
          -480 -881 -96 callgsubr
        </CharString>
        <CharString name="ebreve">
          -42 callsubr
          144 182 17 callsubr
          11 168 191 270 hintmask 11010100
          80 438 -107 callgsubr
          hintmask 00101000
          323 737 -107 callsubr
          endchar
        </CharString>
        <CharString name="ecaron">
          -42 callsubr
          86 418 17 callsubr
          -31 748 -347 270 hintmask 00101000
          567 -80 callsubr
          hintmask 11010100
          -260 -1144 -96 callgsubr
        </CharString>
        <CharString name="ecircumflex">
          -42 callsubr
          58 446 17 callsubr
          -59 729 -300 270 hintmask 00101000
          420 1214 -93 callsubr
          hintmask 11010100
          -232 -848 -96 callgsubr
        </CharString>
        <CharString name="edieresis">
          -42 callsubr
          207 313 17 callsubr
          -40 303 107 270 -233 303 hintmask 00000000
          hintmask 00101010
          909 1363 -99 callgsubr
          hintmask 11010100
          -383 -925 -96 callgsubr
        </CharString>
        <CharString name="edotaccent">
          -42 callsubr
          195 315 17 callsubr
          180 327 -137 270 hintmask 11010100
          80 438 -107 callgsubr
          hintmask 00101000
          322 788 rmoveto
          -104 callgsubr
          endchar
        </CharString>
        <CharString name="egrave">
          -42 callsubr
          78 510 17 callsubr
          -105 492 -17 270 hintmask 11010100
          80 438 -107 callgsubr
          hintmask 00101000
          283 671 -79 callsubr
        </CharString>
        <CharString name="eight">
          175 -18 176 1232 169 hstemhm
          125 273 -89 265 291 284 -184 254 hintmask 00000000
          hintmask 11100100
          125 351 rmoveto
          -241 222 -128 251 vhcurveto
          hintmask 11101000
          310 241 157 266 174 -126 126 -140 103 hvcurveto
          hintmask 11010100
          171 59 165 142 216 vvcurveto
          202 -182 132 -241 -285 -202 -155 -268 -148 82 -103 103 -89 vhcurveto
          hintmask 11100100
          -192 -71 -178 -149 1 -225 rrcurveto
          641 546 rmoveto
          hintmask 11010100
          -110 81 -82 81 110 vvcurveto
          125 79 96 124 98 90 -65 -122 vhcurveto
          hintmask 11100100
          -143 -88 -104 -111 -59 vhcurveto
          -368 -509 rmoveto
          2 149 95 107 113 63 rrcurveto
          hintmask 11101000
          148 -106 109 -100 -129 vvcurveto
          -126 -93 -88 -137 vhcurveto
          hintmask 11100100
          -131 -106 96 134 hvcurveto
          endchar
        </CharString>
        <CharString name="ellipsis">
          424 -26 320 hstemhm
          59 324 202 324 202 324 cntrmask 01110000
          hintmask 00000000
          hintmask 11110000
          1111 113 rmoveto
          -39 callgsubr
          -526 hmoveto
          -39 callgsubr
          -526 hmoveto
          -39 callgsubr
          endchar
        </CharString>
        <CharString name="emacron">
          -42 callsubr
          259 179 17 callsubr
          32 554 -216 270 hintmask 11010100
          80 438 -107 callgsubr
          hintmask 00101000
          32 852 -37 callsubr
          endchar
        </CharString>
        <CharString name="emdash">
          876 671 203 hstem
          221 1614 vstem
          221 671 rmoveto
          1581 hlineto
          33 203 rlineto
          -1581 hlineto
          endchar
        </CharString>
        <CharString name="endash">
          383 671 203 hstem
          221 1131 vstem
          221 671 rmoveto
          1098 hlineto
          33 203 rlineto
          -1098 hlineto
          endchar
        </CharString>
        <CharString name="eng">
          103 -523 126 418 -21 10 callsubr
          hstemhm
          851 24 callgsubr
          hintmask 11001100
          80 hmoveto
          -38 callgsubr
          97 709 rlineto
          hintmask 11100100
          122 81 132 100 92 hhcurveto
          60 35 -20 -90 -2 hvcurveto
          -4 -151 -54 -358 -43 -279 rrcurveto
          -247 -37 -62 -183 -174 hhcurveto
          -11 -43 4 8 -18 hvcurveto
          -37 -101 rlineto
          -24 22 78 -13 68 hhcurveto
          263 160 131 392 63 hvcurveto
          45 283 69 466 111 vvcurveto
          216 -89 80 -160 -157 -147 -98 -132 -101 vhcurveto
          hintmask 11010100
          16 214 rlineto
          -263 hlineto
          endchar
        </CharString>
        <CharString name="eogonek">
          -73 37 callgsubr
          266 198 802 172 17 callsubr
          -56 237 189 270 hintmask 00000000
          hintmask 11101100
          315 -299 rmoveto
          -84 70 -90 133 130 95 49 60 62 vhcurveto
          -46 137 rlineto
          -42 -56 -40 -13 -46 hhcurveto
          -31 -34 13 56 61 153 145 99 81 hvcurveto
          68 42 50 48 27 38 -73 141 rcurveline
          -86 -82 -132 -75 -114 hhcurveto
          hintmask 11110100
          -151 -29 113 109 3 hvcurveto
          281 50 359 130 316 vvcurveto
          151 -97 105 -214 -355 -260 -310 -408 -5 vhcurveto
          -232 -3 120 -222 296 hhcurveto
          20 19 1 2 19 hvcurveto
          hintmask 11101100
          -91 -51 -145 -110 -125 vvcurveto
          hintmask 11110100
          56 862 rmoveto
          158 11 92 263 165 hhcurveto
          64 38 -29 -81 -179 -230 -125 -140 -7 hvcurveto
          endchar
        </CharString>
        <CharString name="equal">
          -81 28 callgsubr
          164 828 rmoveto
          827 hlineto
          28 203 rlineto
          -828 hlineto
          -90 -704 rmoveto
          828 hlineto
          27 203 rlineto
          -827 hlineto
          endchar
        </CharString>
        <CharString name="estimated">
          252 -16 140 498 146 448 140 hstem
          120 318 557 303 vstem
          438 241 rmoveto
          381 850 vlineto
          10 51 0 73 86 vvcurveto
          -10 329 -239 200 -295 -5 rrcurveto
          -428 -7 -206 -286 -392 vvcurveto
          -430 235 -257 400 168 190 54 61 87 vhcurveto
          -56 132 rlineto
          -44 -69 -148 -63 -157 hhcurveto
          -133 -118 32 85 -81 hvcurveto
          527 vmoveto
          329 vlineto
          84 75 105 35 122 hhcurveto
          118 81 -28 -46 56 hvcurveto
          -374 vlineto
          endchar
        </CharString>
        <CharString name="eth">
          42 -16 168 843 162 513 -21 hstem
          78 292 467 280 vstem
          78 435 rmoveto
          -214 136 -237 292 402 209 381 471 267 -83 261 -208 198 vhcurveto
          137 155 -108 102 rlineto
          0 -79 -94 -64 -71 vhcurveto
          -94 64 -114 56 -93 24 -52 -149 rcurveline
          84 -23 79 -48 71 -59 -138 -141 rcurveline
          116 -101 128 143 83 -91 55 -98 16 -154 rlinecurve
          56 -40 -87 24 -91 hhcurveto
          -309 -248 -267 -455 hvcurveto
          457 -283 rmoveto
          -107 -58 127 144 259 83 313 188 133 66 -119 -54 -3 hvcurveto
          -1 -47 -16 -144 -9 -56 rrcurveto
          -232 -34 -108 -191 -134 hhcurveto
          endchar
        </CharString>
        <CharString name="exclam">
          -469 -5 -21 hstem
          113 552 vstem
          224 488 -64 callsubr
          endchar
        </CharString>
        <CharString name="exclamdbl">
          148 -5 -21 hstemhm
          113 552 66 552 hintmask 10100000
          842 488 -64 callsubr
          hintmask 11000000
          -507 375 -64 callsubr
          endchar
        </CharString>
        <CharString name="exclamdown">
          -469 1349 21 hstem
          55 552 vstem
          496 856 rmoveto
          -208 hlineto
          -233 -1290 rlineto
          295 hlineto
          257 1665 rmoveto
          83 5 -59 56 -84 hhcurveto
          -108 -81 -73 -110 -6 hvcurveto
          -74 -4 38 -63 106 hhcurveto
          107 80 83 98 6 hvcurveto
          endchar
        </CharString>
        <CharString name="f">
          -425 21 -16 callgsubr
          hintmask 00000000
          hintmask 11011000
          129 hmoveto
          -96 callsubr
          hintmask 11101000
          -81 callsubr
          hintmask 11011000
          -4 callgsubr
          hintmask 11101000
          -88 callgsubr
        </CharString>
        <CharString name="f_f">
          305 21 -16 callgsubr
          -62 792 hintmask 00000000
          hintmask 11011000
          129 hmoveto
          -96 callsubr
          hintmask 11101000
          -81 callsubr
          hintmask 11011000
          -4 callgsubr
          hintmask 11101000
          -99 callsubr
          hintmask 00000000
          600 -954 rmoveto
          -96 callsubr
          hintmask 11010100
          -81 callsubr
          hintmask 11100100
          -4 callgsubr
          hintmask 11010100
          -88 callgsubr
        </CharString>
        <CharString name="f_f_i">
          -95 callgsubr
        </CharString>
        <CharString name="f_f_l">
          930 2 1634 -1615 -16 callgsubr
          -62 792 -87 499 hintmask 10000001
          1564 2 -50 callsubr
          hintmask 00000000
          -1657 -1636 rmoveto
          -96 callsubr
          hintmask 01101100
          -81 callsubr
          hintmask 01110100
          -4 callgsubr
          hintmask 01101100
          -99 callsubr
          hintmask 01110100
          600 -954 rmoveto
          -96 callsubr
          hintmask 00000000
          -81 callsubr
          hintmask 01101010
          -4 callgsubr
          hintmask 01110010
          -88 callgsubr
        </CharString>
        <CharString name="f_i">
          -89 callsubr
        </CharString>
        <CharString name="f_l">
          200 2 1634 -1615 -16 callgsubr
          -87 499 hintmask 10000010
          834 2 -50 callsubr
          hintmask 00000000
          -927 -1636 rmoveto
          -96 callsubr
          hintmask 01101100
          -81 callsubr
          hintmask 01110100
          -4 callgsubr
          hintmask 01101100
          -88 callgsubr
        </CharString>
        <CharString name="ffi_dflt">
          -95 callgsubr
        </CharString>
        <CharString name="fi_trk">
          -89 callsubr
        </CharString>
        <CharString name="five">
          -9 -356 196 562 191 328 222 -222 238 hstemhm
          693 311 hintmask 00000000
          hintmask 11101000
          70 -153 rmoveto
          -30 -186 rlineto
          -14 40 57 -3 33 hhcurveto
          475 359 224 357 242 -139 126 -241 -78 -93 -15 -17 -52 hvcurveto
          97 360 rlineto
          507 hlineto
          hintmask 11011000
          60 238 rlineto
          -188 hlineto
          hintmask 11101000
          -22 -16 rlineto
          -567 hlineto
          -157 -689 99 -105 rlineto
          30 64 108 23 72 hhcurveto
          158 61 -82 -134 -250 -297 -96 -247 -23 -25 2 5 -31 hvcurveto
          endchar
        </CharString>
        <CharString name="florin">
          -96 969 186 333 186 0 -21 hstemhm
          191 846 hintmask 00000000
          hintmask 10110000
          198 -356 rmoveto
          273 hlineto
          2 110 834 67 489 vhcurveto
          234 hlineto
          20 186 rlineto
          -231 hlineto
          22 139 rlineto
          hintmask 11010000
          159 26 59 35 91 hhcurveto
          75 1 41 -30 15 -10 rrcurveto
          hintmask 10110000
          37 204 rlineto
          hintmask 11010000
          14 -34 -61 7 -72 hhcurveto
          -218 -199 -164 -272 -38 hvcurveto
          -13 -83 -194 -42 -17 -144 rlineto
          185 hlineto
          endchar
        </CharString>
        <CharString name="four">
          129 0 185 982 -20 hstem
          11 1174 vstem
          68 hmoveto
          606 hlineto
          -49 -375 rlineto
          259 hlineto
          47 375 rlineto
          225 hlineto
          29 218 -226 -15 55 446 -258 -35 -55 -420 -410 -17 79 105 553 885 -112 89 rlineto
          -172 hlineto
          -208 -408 -208 -353 -212 -366 rrcurveto
          endchar
        </CharString>
        <CharString name="foursuperior">
          74 759 175 743 -21 hstem
          92 1049 vstem
          609 441 -68 callgsubr
          endchar
        </CharString>
        <CharString name="fraction">
          -129 -9 callsubr
          110 890 vstem
          110 hmoveto
          -24 callgsubr
        </CharString>
        <CharString name="g">
          -33 callgsubr
          hstem
          75 287 vstem
          173 -261 -75 callgsubr
        </CharString>
        <CharString name="gbreve">
          -33 callgsubr
          144 182 6 callgsubr
          95 168 hintmask 11101000
          173 -261 -104 callsubr
          hintmask 00010100
          291 1118 -107 callsubr
          endchar
        </CharString>
        <CharString name="gcircumflex">
          -33 callgsubr
          58 446 6 callgsubr
          25 729 hintmask 00010100
          495 1214 -93 callsubr
          hintmask 11101000
          -214 -1547 -75 callgsubr
        </CharString>
        <CharString name="gcommaaccent">
          -33 callgsubr
          538 -21 47 -21 6 callgsubr
          223 224 hintmask 00000000
          hintmask 00001010
          731 1243 rmoveto
          140 112 8 74 rlineto
          -40 6 -30 51 48 vvcurveto
          hintmask 00010010
          74 33 40 36 25 vhcurveto
          hintmask 00001010
          3 26 -91 60 rlineto
          -91 -18 -114 -115 -167 vvcurveto
          -101 59 -96 87 -19 vhcurveto
          hintmask 11100100
          -558 -1504 -75 callgsubr
        </CharString>
        <CharString name="gdotaccent">
          -33 callgsubr
          195 315 6 callgsubr
          264 327 hintmask 11101000
          173 -261 -104 callsubr
          hintmask 00010100
          290 1169 rmoveto
          -104 callgsubr
          endchar
        </CharString>
        <CharString name="germandbls">
          100 -16 197 1225 181 hstemhm
          674 272 -52 278 -247 265 hintmask 00000000
          hintmask 11001000
          71 2 rmoveto
          271 hlineto
          113 867 rlineto
          419 53 120 118 144 hhcurveto
          100 53 -62 -75 -106 -54 -75 -80 -77 hvcurveto
          hintmask 11100000
          -62 -65 -55 -62 -95 vvcurveto
          -87 70 -105 54 -70 vhcurveto
          hintmask 11010000
          41 -56 55 -72 -75 vvcurveto
          -107 -62 -35 -124 -1 vhcurveto
          -76 -1 -88 43 -32 34 -25 -226 rcurveline
          -23 44 99 -24 118 hhcurveto
          267 157 130 208 135 -66 101 -59 81 hvcurveto
          hintmask 11100000
          -59 80 -42 58 47 vvcurveto
          hintmask 11001000
          145 244 32 289 vvcurveto
          194 -152 103 -212 -239 -313 -58 -600 -82 vhcurveto
          endchar
        </CharString>
        <CharString name="grave">
          -611 1234 510 hstem
          19 492 vstem
          407 1234 -79 callsubr
        </CharString>
        <CharString name="grave.cap">
          -630 1686 -21 hstem
          30 444 vstem
          366 1572 -30 callgsubr
        </CharString>
        <CharString name="greater">
          227 181 1159 hstem
          252 1035 vstem
          1287 825 rmoveto
          -899 515 -23 -230 616 -339 -699 -338 -30 -252 1019 515 rlineto
          endchar
        </CharString>
        <CharString name="greaterequal">
          225 -1 179 hstem
          152 1066 vstem
          193 249 rmoveto
          1012 430 13 89 -900 462 -28 -230 537 -257 -604 -247 rlineto
          -71 -497 rmoveto
          947 hlineto
          18 179 rlineto
          -946 hlineto
          endchar
        </CharString>
        <CharString name="guillemotleft">
          782 142 959 hstemhm
          209 792 -51 792 hintmask 11000000
          209 530 -34 callsubr
          hintmask 10100000
          714 -175 -34 callsubr
          endchar
        </CharString>
        <CharString name="guillemotright">
          782 137 959 hstemhm
          215 792 -51 792 hintmask 11000000
          1007 708 -34 callgsubr
          hintmask 10100000
          768 175 -34 callgsubr
          endchar
        </CharString>
        <CharString name="guilsinglleft">
          35 142 959 hstem
          204 792 vstem
          204 530 -34 callsubr
          endchar
        </CharString>
        <CharString name="guilsinglright">
          35 137 959 hstem
          194 792 vstem
          986 708 -34 callgsubr
          endchar
        </CharString>
        <CharString name="h">
          101 21 -21 12 callgsubr
          0 -20 hstemhm
          83 1050 -285 24 callgsubr
          hintmask 10110000
          23 callsubr
          hintmask 11001000
          -80 callgsubr
          64 520 rlineto
          -272 hlineto
          endchar
        </CharString>
        <CharString name="hbar">
          101 21 -21 12 callgsubr
          0 -20 126 130 hstemhm
          83 1050 -285 24 callgsubr
          hintmask 10111000
          23 callsubr
          hintmask 11010100
          -80 callgsubr
          18 146 rlineto
          238 hlineto
          16 130 rlineto
          -238 hlineto
          30 244 rlineto
          -272 hlineto
          -32 -244 rlineto
          -120 hlineto
          -16 -130 rlineto
          119 hlineto
          endchar
        </CharString>
        <CharString name="hcircumflex">
          101 21 -21 12 callgsubr
          0 -20 409 -20 hstemhm
          83 1115 -350 24 callgsubr
          hintmask 10111000
          23 callsubr
          hintmask 11010100
          -80 callgsubr
          36 295 41 -26 -91 callgsubr
          -260 -258 11 91 rlineto
          -272 hlineto
          endchar
        </CharString>
        <CharString name="hungarumlaut">
          -233 1233 500 hstem
          95 895 vstem
          664 1233 -61 callgsubr
          endchar
        </CharString>
        <CharString name="hungarumlaut.cap">
          -228 1656 -21 hstem
          5 910 vstem
          555 1560 -64 callgsubr
        </CharString>
        <CharString name="hyphen">
          -13 callgsubr
        </CharString>
        <CharString name="i">
          -531 21 -59 callsubr
          233 315 hstemhm
          102 433 -242 327 hintmask 11010000
          102 hmoveto
          -84 callsubr
          hintmask 00101000
          177 213 rmoveto
          -104 callgsubr
          endchar
        </CharString>
        <CharString name="i.cy">
          -531 21 -59 callsubr
          231 315 hstemhm
          102 433 -242 327 hintmask 11010000
          102 hmoveto
          -84 callsubr
          hintmask 00101000
          177 -73 callsubr
          endchar
        </CharString>
        <CharString name="i.dot">
          -531 21 -59 callsubr
          231 315 hstemhm
          102 433 -242 327 hintmask 11010000
          102 hmoveto
          -84 callsubr
          hintmask 00101000
          177 -73 callsubr
          endchar
        </CharString>
        <CharString name="i.uc">
          -512 -65 callgsubr
          165 -21 11 callgsubr
          -255 329 hintmask 11010000
          -77 callsubr
          hintmask 00101000
          165 -17 callsubr
        </CharString>
        <CharString name="iacute">
          -531 21 -59 callsubr
          114 510 hstemhm
          102 433 -227 501 hintmask 00101000
          412 1234 -92 callgsubr
          hintmask 11010000
          -206 -1319 -10 callsubr
        </CharString>
        <CharString name="ibreve">
          -531 21 -59 callsubr
          180 182 hstemhm
          102 433 -405 168 hintmask 11010000
          102 hmoveto
          -84 callsubr
          hintmask 00101000
          184 160 -107 callsubr
          endchar
        </CharString>
        <CharString name="icircumflex">
          -531 21 -59 callsubr
          94 446 hstemhm
          60 729 -687 433 hintmask 00110000
          168 1214 -93 callsubr
          hintmask 11001000
          42 -1286 -10 callsubr
        </CharString>
        <CharString name="idieresis">
          -531 21 -59 callsubr
          243 313 hstemhm
          79 303 -280 433 -9 303 hintmask 00000000
          hintmask 00110100
          657 1363 -99 callgsubr
          hintmask 11001000
          -109 -1363 -10 callsubr
        </CharString>
        <CharString name="igrave">
          -531 21 -59 callsubr
          114 510 hstemhm
          14 492 -404 433 hintmask 11001000
          102 hmoveto
          -84 callsubr
          hintmask 00110000
          144 94 -79 callsubr
        </CharString>
        <CharString name="ij">
          91 -521 171 371 -59 callsubr
          231 315 hstemhm
          102 15 callgsubr
          -245 786 -237 327 hintmask 10100010
          735 -77 callgsubr
          hintmask 01101000
          -780 -1140 rmoveto
          -84 callsubr
          hintmask 00010100
          175 -73 callsubr
          hintmask 00010001
          631 hmoveto
          -104 callgsubr
          endchar
        </CharString>
        <CharString name="imacron">
          -531 21 -59 callsubr
          295 179 hstemhm
          102 433 -384 554 hintmask 11010000
          102 hmoveto
          -84 callsubr
          hintmask 00101000
          -107 275 -37 callsubr
          endchar
        </CharString>
        <CharString name="infinity">
          798 185 204 -201 200 449 207 hstemhm
          81 253 1297 255 hintmask 00000000
          hintmask 01111000
          552 188 rmoveto
          181 2 140 106 97 124 rrcurveto
          hintmask 10111000
          -127 95 124 -108 226 hhcurveto
          295 176 180 257 218 -141 207 -322 -3 hvcurveto
          -180 -2 -144 -113 -100 -125 rrcurveto
          130 -97 -130 112 -226 hhcurveto
          -273 1 -192 -167 -267 vvcurveto
          hintmask 01111000
          -226 161 -203 310 4 vhcurveto
          hintmask 10111000
          560 459 rmoveto
          121 88 88 69 102 hhcurveto
          159 82 -99 -119 -129 -73 -101 -126 -138 -106 134 124 -76 hvcurveto
          hintmask 01111000
          -538 -259 rmoveto
          -163 -77 105 121 123 77 98 142 131 100 -134 -122 74 hvcurveto
          -121 -90 -93 -70 -101 hhcurveto
          endchar
        </CharString>
        <CharString name="integral">
          -90 -518 204 1799 200 hstem
          213 261 154 261 vstem
          202 -218 rmoveto
          -93 -173 rlineto
          -69 51 144 -58 135 hhcurveto
          330 122 234 268 -2 hvcurveto
          -3 429 -409 394 -3 392 rrcurveto
          176 -2 67 110 152 hhcurveto
          90 72 -45 -35 21 hvcurveto
          122 148 rlineto
          87 -55 -124 45 -133 hhcurveto
          -326 -148 -215 -278 3 hvcurveto
          3 -425 409 -400 3 -395 rrcurveto
          -203 2 -62 -83 -152 hhcurveto
          -101 -87 63 33 -26 hvcurveto
          endchar
        </CharString>
        <CharString name="iogonek">
          -502 37 callgsubr
          303 -59 callsubr
          hstemhm
          -94 238 182 24 0 303 hintmask 00000000
          hintmask 11101000
          468 1351 rmoveto
          hintmask 11100100
          111 71 80 95 3 hvcurveto
          76 2 -60 64 -92 hhcurveto
          hintmask 11101000
          -98 -77 -79 -93 -2 hvcurveto
          -79 -3 67 -64 78 hhcurveto
          -355 -1351 rmoveto
          54 hlineto
          hintmask 11111000
          -86 callgsubr
          19 hlineto
          157 1140 rlineto
          -277 hlineto
          endchar
        </CharString>
        <CharString name="itilde">
          -531 21 -59 callsubr
          204 31 callsubr
          21 844 -763 433 hintmask 11000100
          102 hmoveto
          -84 callsubr
          hintmask 00000000
          -140 241 -22 callsubr
          67 -1 rrcurveto
          hintmask 00011000
          -85 callsubr
          hintmask 00101000
          -19 callgsubr
        </CharString>
        <CharString name="j">
          14 callsubr
          233 315 hstemhm
          -252 786 -244 327 hintmask 11010000
          110 -77 callgsubr
          hintmask 00101000
          175 213 rmoveto
          -104 callgsubr
          endchar
        </CharString>
        <CharString name="jcircumflex">
          14 callsubr
          94 446 hstemhm
          -252 786 -489 729 hintmask 11010000
          110 -77 callgsubr
          hintmask 00101000
          -104 74 -45 callgsubr
        </CharString>
        <CharString name="k">
          -21 21 -59 callsubr
          hstem
          83 1052 vstem
          83 hmoveto
          -54 callsubr
        </CharString>
        <CharString name="kcommaaccent">
          -21 -21 callgsubr
          521 -59 callsubr
          hstemhm
          83 1052 -649 225 hintmask 11000100
          425 -156 -103 callgsubr
          hintmask 00111000
          -482 44 rmoveto
          -54 callsubr
        </CharString>
        <CharString name="kgreenlandic">
          -22 21 -21 1148 -20 hstem
          80 1057 vstem
          784 hmoveto
          306 hlineto
          -343 609 113 59 165 143 75 185 rlinecurve
          20 48 13 51 4 53 rrcurveto
          -270 hlineto
          -16 -54 -20 -50 -24 -49 -86 -167 -108 -119 -140 -78 2 -1 rcurveline
          -2 hlineto
          -393 -630 6 callsubr
          155 1148 rlineto
          -275 hlineto
          endchar
        </CharString>
        <CharString name="l">
          -530 2 1634 hstem
          104 499 vstem
          104 2 -50 callsubr
          endchar
        </CharString>
        <CharString name="lacute">
          -530 21 -21 1526 -20 180 -21 hstemhm
          104 485 -230 444 hintmask 11010000
          104 hmoveto
          -38 callgsubr
          209 1526 rlineto
          -277 hlineto
          hintmask 00101000
          155 46 -93 callgsubr
          endchar
        </CharString>
        <CharString name="lcaron">
          -341 4 1634 -632 645 hstemhm
          104 499 157 223 hintmask 10100000
          104 4 -50 callsubr
          hintmask 01010000
          524 -632 -83 callgsubr
        </CharString>
        <CharString name="lcommaaccent">
          -530 -21 callgsubr
          502 1634 hstemhm
          104 499 -462 225 hintmask 11001000
          80 -156 -103 callgsubr
          hintmask 00110000
          -116 46 -50 callsubr
          endchar
        </CharString>
        <CharString name="ldot">
          -288 2 1634 -992 -21 hstemhm
          104 499 17 322 hintmask 10100000
          104 2 -50 callsubr
          hintmask 01010000
          294 -880 -84 callgsubr
          endchar
        </CharString>
        <CharString name="less">
          227 178 1159 hstem
          197 1035 vstem
          197 693 rmoveto
          899 -515 23 230 -616 339 699 338 30 252 -1019 -515 rlineto
          endchar
        </CharString>
        <CharString name="lessequal">
          225 -1 179 hstem
          146 1071 vstem
          202 696 rmoveto
          902 -447 26 226 -549 254 606 251 30 236 -1008 -441 rlineto
          -63 -776 rmoveto
          947 hlineto
          17 179 rlineto
          -946 hlineto
          endchar
        </CharString>
        <CharString name="logicalnot">
          215 664 189 hstem
          207 981 vstem
          207 664 rmoveto
          743 hlineto
          -41 -342 rlineto
          217 hlineto
          62 531 rlineto
          -960 hlineto
          endchar
        </CharString>
        <CharString name="lozenge">
          120 20 -21 1534 -20 hstem
          68 1154 vstem
          642 -1 rmoveto
          5 hlineto
          575 766 rlineto
          13 vlineto
          -575 755 rlineto
          -4 hlineto
          -575 -755 rlineto
          -13 vlineto
          575 -411 rmoveto
          -295 415 rlineto
          5 vlineto
          295 397 rlineto
          3 hlineto
          296 -397 rlineto
          -3 vlineto
          -296 -417 rlineto
          endchar
        </CharString>
        <CharString name="lslash">
          -530 2 1634 hstem
          60 642 vstem
          104 2 6 callsubr
          114 838 208 82 rlineto
          177 vlineto
          -183 -75 84 612 rlineto
          -277 hlineto
          -100 -732 -166 -68 rlineto
          -167 vlineto
          142 56 rlineto
          endchar
        </CharString>
        <CharString name="m">
          712 10 callsubr
          hstemhm
          80 1667 -284 284 35 callgsubr
          98 715 rlineto
          hintmask 10010000
          -46 callsubr
          hintmask 10001000
          -62 callsubr
          hintmask 01010000
          18 207 rlineto
          -265 hlineto
          endchar
        </CharString>
        <CharString name="macron">
          -538 1415 179 hstem
          34 554 vstem
          34 1415 -37 callsubr
          endchar
        </CharString>
        <CharString name="macron.cap">
          -538 1718 179 hstem
          36 556 vstem
          36 1718 28 callsubr
        </CharString>
        <CharString name="minus">
          -13 callgsubr
        </CharString>
        <CharString name="minute">
          -532 1190 592 hstem
          250 382 vstem
          250 1190 3 callgsubr
          endchar
        </CharString>
        <CharString name="mu">
          -83 callsubr
        </CharString>
        <CharString name="multiply">
          229 281 983 hstem
          199 1045 vstem
          336 282 rmoveto
          370 355 290 -356 171 154 -311 332 388 332 -138 165 -374 -356 -286 356 -170 -154 307 -332 -384 -332 rlineto
          endchar
        </CharString>
        <CharString name="n">
          102 10 callsubr
          hstemhm
          80 1056 -285 285 35 callgsubr
          97 709 rlineto
          hintmask 10001000
          -94 callgsubr
          hintmask 01010000
          3 callsubr
          endchar
        </CharString>
        <CharString name="nacute">
          102 12 callgsubr
          0 -20 98 510 hstemhm
          80 1056 -502 501 -284 285 hintmask 00101000
          738 1234 -92 callgsubr
          hintmask 00000000
          -554 -1317 10 callgsubr
          hintmask 01010000
          -94 callgsubr
          hintmask 10000100
          3 callsubr
          endchar
        </CharString>
        <CharString name="nbspace">
          -670 endchar
        </CharString>
        <CharString name="ncaron">
          102 12 callgsubr
          0 -20 106 418 hstemhm
          80 1056 -722 748 -311 285 hintmask 00101000
          641 -80 callsubr
          hintmask 00000000
          -334 -1580 10 callgsubr
          hintmask 01010000
          -94 callgsubr
          hintmask 10000100
          3 callsubr
          endchar
        </CharString>
        <CharString name="ncommaaccent">
          102 -21 callgsubr
          1431 225 0 -20 hstemhm
          80 1056 -684 225 174 285 hintmask 11000100
          391 -156 -103 callgsubr
          hintmask 00000000
          -451 46 10 callgsubr
          hintmask 00011000
          -94 callgsubr
          hintmask 00100010
          3 callsubr
          endchar
        </CharString>
        <CharString name="nine">
          123 126 199 647 188 hstem
          120 267 496 262 vstem
          203 -294 rmoveto
          61 -163 rlineto
          513 134 368 460 504 vvcurveto
          285 -141 234 -310 -397 -177 -330 -292 -213 124 -199 262 114 101 41 52 66 vhcurveto
          -59 -162 -221 -245 -304 -106 rrcurveto
          387 619 rmoveto
          -111 -92 71 173 157 70 246 199 148 79 -138 -191 -64 -12 -65 -19 -74 hvcurveto
          -40 -34 -90 -75 -138 hhcurveto
          endchar
        </CharString>
        <CharString name="notequal">
          -81 21 -21 28 callgsubr
          145 hmoveto
          190 hlineto
          151 327 rlineto
          443 hlineto
          27 203 rlineto
          -376 hlineto
          137 298 rlineto
          274 hlineto
          28 203 rlineto
          -208 hlineto
          142 306 rlineto
          -191 hlineto
          -142 -306 rlineto
          -429 hlineto
          -27 -203 rlineto
          363 hlineto
          -138 -298 rlineto
          -260 hlineto
          -28 -203 rlineto
          195 hlineto
          endchar
        </CharString>
        <CharString name="ntilde">
          102 10 callsubr
          188 31 callsubr
          80 1056 -790 844 -339 24 callgsubr
          hintmask 00100100
          80 2 10 callgsubr
          hintmask 10000001
          -94 callgsubr
          hintmask 01000100
          3 callsubr
          hintmask 00000000
          208 241 -22 callsubr
          67 -1 rrcurveto
          hintmask 00001010
          -85 callsubr
          hintmask 00010010
          -19 callgsubr
        </CharString>
        <CharString name="numbersign">
          250 21 -21 343 178 353 174 hstem
          110 1199 vstem
          247 hmoveto
          202 hlineto
          61 343 rlineto
          272 hlineto
          -50 -343 rlineto
          200 hlineto
          56 343 rlineto
          219 hlineto
          14 178 rlineto
          -207 hlineto
          58 353 rlineto
          224 hlineto
          13 174 rlineto
          -212 hlineto
          51 309 rlineto
          -205 hlineto
          -53 -309 rlineto
          -271 hlineto
          48 309 rlineto
          -205 hlineto
          -50 -309 rlineto
          -212 hlineto
          -13 -174 rlineto
          200 hlineto
          -57 -353 rlineto
          -206 hlineto
          -14 -178 rlineto
          194 hlineto
          232 178 rmoveto
          58 353 rlineto
          271 hlineto
          -57 -353 rlineto
          endchar
        </CharString>
        <CharString name="o">
          -41 callgsubr
          hstem
          77 279 441 282 vstem
          -87 callsubr
          endchar
        </CharString>
        <CharString name="oacute">
          -41 callgsubr
          78 510 16 callgsubr
          210 501 -270 282 hintmask 00101000
          670 1234 -92 callgsubr
          hintmask 11010100
          -489 -862 -105 callgsubr
          endchar
        </CharString>
        <CharString name="obreve">
          -41 callgsubr
          144 182 16 callgsubr
          32 168 241 282 hintmask 11010100
          -87 callsubr
          hintmask 00101000
          181 1135 -107 callsubr
          endchar
        </CharString>
        <CharString name="ocircumflex">
          -41 callgsubr
          58 446 16 callgsubr
          -38 729 -250 282 hintmask 00101000
          426 1214 -93 callsubr
          hintmask 11010100
          -241 -829 -105 callgsubr
          endchar
        </CharString>
        <CharString name="odieresis">
          -41 callgsubr
          207 313 16 callgsubr
          -19 303 144 303 -290 282 hintmask 00000000
          hintmask 00101100
          915 1363 -99 callgsubr
          hintmask 11010010
          -392 -906 -105 callgsubr
          endchar
        </CharString>
        <CharString name="oe">
          615 -16 181 -181 198 794 180 -172 172 16 callgsubr
          441 270 370 270 hintmask 00000000
          hintmask 10101110
          77 452 rmoveto
          -276 3 125 -192 275 hhcurveto
          155 126 60 97 96 hvcurveto
          -94 66 108 -63 158 hhcurveto
          227 171 136 82 58 hvcurveto
          -73 141 rlineto
          hintmask 01101110
          -86 -82 -132 -75 -114 hhcurveto
          -151 -29 113 109 3 hvcurveto
          281 50 359 130 316 vvcurveto
          151 -97 105 -214 -157 -138 -60 -103 -106 vhcurveto
          103 -63 -103 60 -153 hhcurveto
          hintmask 10101110
          -379 -223 -344 -360 3 hvcurveto
          990 111 rmoveto
          hintmask 10011110
          158 11 92 263 165 hhcurveto
          64 38 -29 -81 hvcurveto
          hintmask 10101110
          -179 -230 -125 -140 -7 vhcurveto
          -548 -398 rmoveto
          -107 -54 87 181 -2 hvcurveto
          235 -2 85 308 195 hhcurveto
          108 53 -81 -183 2 hvcurveto
          -199 2 -67 -348 -213 hhcurveto
          endchar
        </CharString>
        <CharString name="ogonek">
          -586 -458 171 hstem
          1 239 vstem
          1 -294 rmoveto
          -84 60 -80 134 131 103 65 59 62 vhcurveto
          -44 107 rlineto
          -42 -56 -40 -18 -46 hhcurveto
          -31 -34 13 56 74 124 93 106 70 hvcurveto
          -91 40 -79 -36 rlineto
          -82 -41 -217 -114 -162 vvcurveto
          endchar
        </CharString>
        <CharString name="ograve">
          -41 callgsubr
          78 510 16 callgsubr
          -84 492 33 282 hintmask 11010100
          -87 callsubr
          hintmask 00101000
          141 1069 -79 callsubr
        </CharString>
        <CharString name="ohungarumlaut">
          -41 callgsubr
          77 500 16 callgsubr
          -9 895 -445 282 hintmask 00101000
          916 1233 -61 callgsubr
          hintmask 11010100
          -270 -844 -105 callgsubr
          endchar
        </CharString>
        <CharString name="omacron">
          -41 callgsubr
          259 179 16 callgsubr
          53 554 -166 282 hintmask 00101000
          409 1415 -37 callsubr
          hintmask 11010100
          -343 -1137 -105 callgsubr
          endchar
        </CharString>
        <CharString name="one">
          -172 21 -21 1147 -20 35 -20 hstemhm
          179 578 hintmask 00000000
          hintmask 10110000
          313 hmoveto
          279 hlineto
          hintmask 11010000
          165 1147 rlineto
          hintmask 10110000
          -162 15 -106 -73 -170 -98 -140 -31 rlinecurve
          31 -162 87 15 60 9 77 25 rlinecurve
          endchar
        </CharString>
        <CharString name="onehalf">
          1405 -123 173 -29 -21 591 1054 -907 194 598 -20 hstemhm
          310 535 -129 890 406 268 hintmask 10010001
          1454 -123 -56 callsubr
          hintmask 00100100
          -936 579 -46 callgsubr
          hintmask 01001010
          150 -1378 rmoveto
          -24 callgsubr
        </CharString>
        <CharString name="onequarter">
          1405 21 -21 111 175 305 1054 -616 -21 522 -20 hstemhm
          310 535 -128 890 -316 1049 hintmask 01010001
          1808 -207 -68 callgsubr
          hintmask 00100100
          -1393 480 -46 callgsubr
          hintmask 10001010
          151 -1378 rmoveto
          -24 callgsubr
        </CharString>
        <CharString name="onesuperior">
          -135 591 1054 hstem
          280 535 vstem
          429 591 -46 callgsubr
          endchar
        </CharString>
        <CharString name="ordfeminine">
          -246 735 154 565 123 -30 -20 hstemhm
          93 237 hintmask 00000000
          hintmask 10110000
          344 735 rmoveto
          116 92 62 74 69 hvcurveto
          -5 -136 rlineto
          193 hlineto
          153 839 -130 -27 rlineto
          hintmask 11010000
          15 -46 -77 15 -64 hhcurveto
          -319 -1 -233 -275 -282 vvcurveto
          hintmask 10110000
          -174 88 -110 163 vhcurveto
          95 154 rmoveto
          -85 -24 56 98 hvcurveto
          hintmask 11010000
          159 97 252 203 24 27 -6 -12 23 vhcurveto
          -81 -423 rlineto
          hintmask 10110000
          -67 -56 -71 -57 -57 hhcurveto
          endchar
        </CharString>
        <CharString name="ordmasculine">
          -255 725 146 579 139 hstem
          99 237 358 239 vstem
          445 725 rmoveto
          252 -2 236 174 327 vvcurveto
          223 -142 141 -209 1 vhcurveto
          -237 2 -246 -182 -321 vvcurveto
          -225 159 -137 187 -1 vhcurveto
          19 146 rmoveto
          -82 1 -46 89 139 vvcurveto
          126 51 223 175 1 vhcurveto
          96 36 -88 -141 -139 -37 -212 -193 1 hvcurveto
          endchar
        </CharString>
        <CharString name="oslash">
          3 -14 181 811 180 hstem
          77 279 441 282 vstem
          86 -83 rmoveto
          89 -49 107 162 rlineto
          -29 54 66 -15 78 hhcurveto
          379 223 337 363 -3 hvcurveto
          -2 165 -43 136 -94 83 117 184 rcurveline
          -89 49 -113 -179 rlineto
          22 -49 -58 12 -67 hhcurveto
          -379 -228 -336 -363 3 hvcurveto
          1 -154 40 -129 83 -85 rrcurveto
          165 236 rmoveto
          -6 32 -4 38 43 vvcurveto
          237 -3 91 301 195 hhcurveto
          35 28 -9 -19 23 hvcurveto
          -311 -738 rmoveto
          368 635 10 -39 4 -48 1 -58 rlinecurve
          -242 3 -84 -293 -197 hhcurveto
          -44 -35 15 30 -26 hvcurveto
          endchar
        </CharString>
        <CharString name="otilde">
          -41 callgsubr
          168 31 callsubr
          77 279 -77 844 -326 282 hintmask 11001010
          -87 callsubr
          hintmask 00000000
          -143 1216 -22 callsubr
          67 -1 rrcurveto
          hintmask 00010100
          -85 callsubr
          hintmask 00100100
          -19 callgsubr
        </CharString>
        <CharString name="p">
          18 callgsubr
          hstemhm
          854 288 hintmask 00000000
          hintmask 10101100
          353 -5 rmoveto
          hintmask 11010100
          -18 callgsubr
          hintmask 11001100
          -2 callsubr
          hintmask 11010100
          -2 callgsubr
          hintmask 11001100
          -42 -39 3 10 -35 hvcurveto
          endchar
        </CharString>
        <CharString name="paragraph">
          209 21 -21 1368 184 hstem
          121 1283 vstem
          377 hmoveto
          234 hlineto
          175 1368 rlineto
          194 hlineto
          -173 -1368 rlineto
          235 hlineto
          25 211 127 950 25 211 167 33 rcurveline
          18 147 rlineto
          -304 hlineto
          -120 -100 19 -164 hhcurveto
          -437 -163 -206 -270 5 hvcurveto
          4 -218 140 -146 214 -5 rrcurveto
          endchar
        </CharString>
        <CharString name="parenleft">
          -301 1698 -21 hstem
          167 263 vstem
          167 523 rmoveto
          -514 255 -273 93 -71 vhcurveto
          17 hlineto
          142 85 rlineto
          -84 98 -160 252 415 vvcurveto
          98 9 107 15 92 vhcurveto
          79 446 241 287 145 132 -133 89 rcurveline
          -130 -70 -384 -342 -85 -567 rrcurveto
          -13 -86 -7 -88 -90 vvcurveto
          endchar
        </CharString>
        <CharString name="parenright">
          -301 -270 21 hstem
          460 263 vstem
          723 905 rmoveto
          514 -255 273 -93 71 vhcurveto
          -17 hlineto
          -142 -85 rlineto
          84 -98 160 -252 -415 vvcurveto
          -98 -9 -107 -15 -92 vhcurveto
          -79 -446 -241 -287 -145 -132 133 -89 rcurveline
          130 70 384 342 85 567 rrcurveto
          13 86 7 88 90 vvcurveto
          endchar
        </CharString>
        <CharString name="partialdiff">
          206 -16 204 698 188 420 215 hstem
          144 282 550 276 vstem
          144 499 rmoveto
          -299 9 226 -216 279 hhcurveto
          423 171 328 498 445 -197 454 -514 -128 -151 -40 -79 -101 hvcurveto
          92 -163 rlineto
          40 59 102 27 83 hhcurveto
          286 143 -197 -271 39 hvcurveto
          29 -69 -79 19 -97 hhcurveto
          -308 -281 -166 -409 13 hvcurveto
          282 23 rmoveto
          255 -10 134 109 169 hhcurveto
          101 79 -20 -48 77 hvcurveto
          -214 -1 -7 -416 -269 hhcurveto
          -204 -62 145 189 -7 hvcurveto
          endchar
        </CharString>
        <CharString name="percent">
          802 -25 callsubr
          11 callsubr
          hintmask 1101011111000000
          466 hmoveto
          -8 callgsubr
          hintmask 1101101111000000
          23 callgsubr
          hintmask 1101011111000000
          18 callsubr
          hintmask 1101101111000000
          29 callgsubr
          hintmask 1101011111000000
          34 callgsubr
          vhcurveto
          hintmask 1110011111000000
          -54 callgsubr
        </CharString>
        <CharString name="period">
          -629 -5 -21 hstem
          60 322 vstem
          60 107 -84 callgsubr
          endchar
        </CharString>
        <CharString name="periodcentered">
          -469 641 -21 hstem
          179 322 vstem
          179 753 -84 callgsubr
          endchar
        </CharString>
        <CharString name="perthousand">
          1649 -25 callsubr
          99 198 343 208 hintmask 0110000000110000
          1953 398 rmoveto
          -200 103 -136 198 274 174 239 238 191 -86 129 -215 -259 -189 -231 -230 vhcurveto
          198 9 rmoveto
          113 70 175 144 82 47 -67 -106 34 callgsubr
          -88 -51 74 106 vhcurveto
          11 callsubr
          -1685 -407 rmoveto
          -8 callgsubr
          hintmask 1101011111000000
          23 callgsubr
          hintmask 1101101111000000
          18 callsubr
          hintmask 1101011111000000
          29 callgsubr
          hintmask 1101101111000000
          34 callgsubr
          vhcurveto
          hintmask 1101011111000000
          -54 callgsubr
        </CharString>
        <CharString name="pi">
          425 -16 213 -196 -21 25 -21 919 237 hstemhm
          60 1457 -639 265 hintmask 00000000
          hintmask 00111000
          129 116 rmoveto
          hintmask 01011000
          169 -136 75 9 60 29 41 34 rlinecurve
          90 81 52 63 12 222 45 485 rcurveline
          284 hlineto
          -76 -629 rlineto
          hintmask 00110100
          -184 -21 77 -106 162 hhcurveto
          196 146 132 118 39 hvcurveto
          -109 90 rlineto
          hintmask 10010100
          -50 -35 -65 -77 -65 hhcurveto
          -38 -29 27 86 4 hvcurveto
          44 593 rlineto
          17 hlineto
          204 100 87 225 9 hvcurveto
          -169 hlineto
          -54 -18 -41 -21 -82 hhcurveto
          -797 hlineto
          -195 -129 -87 -176 -26 hvcurveto
          129 -58 rlineto
          39 39 47 45 100 hhcurveto
          58 hlineto
          -62 -412 -13 -131 -18 -107 -107 -83 rlinecurve
          hintmask 00111000
          -42 -31 -44 -19 -18 -4 rrcurveto
          endchar
        </CharString>
        <CharString name="plus">
          204 674 210 hstem
          212 974 vstem
          526 273 rmoveto
          226 hlineto
          31 258 8 -11 callsubr
          -29 -255 -11 -152 -127 11 rlineto
          -238 24 callsubr
          endchar
        </CharString>
        <CharString name="plusminus">
          206 15 179 480 210 hstem
          168 1018 vstem
          526 273 rmoveto
          226 hlineto
          30 258 9 -11 callsubr
          -28 -255 -12 -152 -128 11 rlineto
          -237 24 callsubr
          -388 -516 rmoveto
          887 hlineto
          17 179 rlineto
          -887 hlineto
          endchar
        </CharString>
        <CharString name="product">
          532 1301 221 hstem
          362 301 457 300 vstem
          362 -171 rmoveto
          301 1472 457 -1472 300 1472 212 221 -1479 -221 209 hlineto
          endchar
        </CharString>
        <CharString name="q">
          64 -478 -21 483 198 798 176 3 -20 6 callgsubr
          hintmask 00000000
          hintmask 11101000
          398 -16 rmoveto
          164 121 127 115 65 hvcurveto
          -38 -224 -67 -501 rlineto
          273 hlineto
          hintmask 11011000
          220 1658 rlineto
          hintmask 11101000
          -151 -41 rlineto
          19 -63 -96 19 -76 hhcurveto
          -459 -216 -401 -341 -67 callsubr
          hvcurveto
          80 198 rmoveto
          -74 -42 79 176 239 114 -27 callgsubr
          40 37 -4 -8 34 hvcurveto
          -66 -488 rlineto
          -125 -58 -113 -173 -118 hhcurveto
          endchar
        </CharString>
        <CharString name="question">
          -115 -5 -21 1595 210 hstemhm
          247 228 -144 322 138 251 hintmask 00000000
          hintmask 11101000
          354 464 rmoveto
          17 -1 147 58 rlineto
          -7 28 -36 59 54 245 567 -37 478 vvcurveto
          229 -152 202 -379 -79 -98 -23 -30 -32 vhcurveto
          -42 -185 rlineto
          22 76 59 6 77 hhcurveto
          175 144 -99 -156 -39 -9 -48 -7 -25 hvcurveto
          -23 -67 -101 -69 -133 -63 rrcurveto
          -199 -103 -72 -81 -119 vvcurveto
          -92 53 -103 54 -41 vhcurveto
          hintmask 11011000
          -23 -357 -84 callgsubr
          endchar
        </CharString>
        <CharString name="questiondown">
          -107 -355 210 hstemhm
          67 251 138 322 -144 228 hintmask 00000000
          hintmask 11100000
          596 1130 rmoveto
          112 70 90 98 77 -56 55 -81 -112 -73 -74 -115 -70 38 -61 102 hvcurveto
          hintmask 11010000
          -529 -1053 rmoveto
          -230 152 -202 379 79 98 23 30 32 vhcurveto
          42 185 rlineto
          -22 -76 -59 -6 -77 hhcurveto
          -175 -144 99 157 39 9 48 7 24 hvcurveto
          23 68 101 69 133 63 rrcurveto
          199 103 72 81 119 vvcurveto
          92 -53 102 -54 41 vhcurveto
          -17 1 -147 -58 rlineto
          7 -28 36 -58 -54 -246 -567 38 -478 vvcurveto
          endchar
        </CharString>
        <CharString name="quotedbl">
          -87 966 721 hstemhm
          220 358 166 358 hintmask 11000000
          22 callgsubr
          hintmask 10100000
          443 -721 rmoveto
          184 hlineto
          174 721 rlineto
          -277 hlineto
          endchar
        </CharString>
        <CharString name="quotedblbase">
          49 -538 849 hstemhm
          218 267 242 267 hintmask 11000000
          -44 callgsubr
          hintmask 10100000
          509 -40 callsubr
        </CharString>
        <CharString name="quotedblleft">
          50 907 849 hstemhm
          198 267 242 267 hintmask 10100000
          889 907 rmoveto
          -63 callgsubr
          hintmask 11000000
          -509 hmoveto
          -63 callgsubr
          endchar
        </CharString>
        <CharString name="quotedblright">
          49 901 849 hstemhm
          403 267 245 267 hintmask 10100000
          1000 -41 callsubr
          hintmask 11000000
          -512 -40 callsubr
        </CharString>
        <CharString name="quoteleft">
          -459 907 849 hstem
          198 267 vstem
          380 907 rmoveto
          -63 callgsubr
          endchar
        </CharString>
        <CharString name="quotereversed">
          -470 891 853 hstem
          200 240 vstem
          416 891 rmoveto
          117 102 4 22 -52 46 -62 123 21 134 rlinecurve
          10 94 54 84 81 33 6 41 rcurveline
          -112 174 -112 -15 -143 -130 -21 -188 rlinecurve
          -37 -242 127 -179 119 -99 rrcurveto
          endchar
        </CharString>
        <CharString name="quoteright">
          -459 901 849 hstem
          353 267 vstem
          438 -41 callsubr
          endchar
        </CharString>
        <CharString name="quotesinglbase">
          -459 -538 849 hstem
          218 267 vstem
          -44 callgsubr
          endchar
        </CharString>
        <CharString name="quotesingle">
          -611 966 721 hstem
          220 358 vstem
          22 callgsubr
          endchar
        </CharString>
        <CharString name="r">
          -309 21 -59 callsubr
          23 -20 33 -20 hstemhm
          80 790 hintmask 00000000
          hintmask 10011000
          80 hmoveto
          -49 callgsubr
          hintmask 10101000
          54 285 rlineto
          hintmask 10011000
          -28 callgsubr
          hintmask 11001000
          8 callgsubr
        </CharString>
        <CharString name="racute">
          36 callgsubr
          98 510 hstemhm
          80 790 -499 501 hintmask 00010100
          475 1234 -92 callgsubr
          hintmask 00000000
          -291 -1319 -49 callsubr
        </CharString>
        <CharString name="radical">
          470 -354 2224 hstem
          92 1552 vstem
          199 376 rmoveto
          148 77 353 -807 rlineto
          245 hlineto
          699 2224 rlineto
          -289 hlineto
          -540 -1879 -266 725 rlineto
          -224 hlineto
          -233 -126 rlineto
          endchar
        </CharString>
        <CharString name="rcaron">
          36 callgsubr
          106 418 hstemhm
          80 790 -719 748 hintmask 00010100
          378 -80 callsubr
          hintmask 00000000
          -71 -1582 -49 callsubr
        </CharString>
        <CharString name="rcommaaccent">
          -309 -21 callgsubr
          521 -21 1143 -20 33 -20 hstemhm
          80 790 -742 225 hintmask 11000010
          67 -156 -103 callgsubr
          hintmask 00000000
          -127 44 rmoveto
          -49 callgsubr
          hintmask 00101100
          54 285 rlineto
          hintmask 00110100
          -28 callgsubr
          hintmask 00101100
          8 callgsubr
        </CharString>
        <CharString name="registered">
          955 83 129 629 143 319 149 260 127 hstem
          183 142 394 201 305 205 355 143 vstem
          183 963 rmoveto
          -487 386 -393 486 486 387 393 487 486 -387 390 -486 -486 -386 35 callsubr
          313 336 417 417 313 -336 -413 -414 -313 -337 -417 -417 -313 337 414 vhcurveto
          394 -480 rmoveto
          201 358 hlineto
          36 52 0 1 20 hvcurveto
          92 -32 39 -128 41 -86 22 -45 15 -35 27 -32 230 -1 rcurveline
          -48 68 -17 27 -20 35 -51 90 -35 109 -86 55 rrcurveto
          144 43 49 120 147 vvcurveto
          154 -113 121 -250 vhcurveto
          -111 -72 -7 -78 hhcurveto
          -87 hlineto
          201 -456 rmoveto
          303 vlineto
          11 37 28 0 40 hhcurveto
          155 4 45 -60 -96 vvcurveto
          -117 -62 -50 -118 -35 -60 1 4 -30 vhcurveto
          endchar
        </CharString>
        <CharString name="ring">
          -429 1253 125 293 124 hstem
          73 167 324 168 vstem
          373 1253 -72 callsubr
          endchar
        </CharString>
        <CharString name="ring.cap">
          -429 1469 123 293 122 hstem
          43 168 323 169 vstem
          348 1469 -48 callgsubr
        </CharString>
        <CharString name="s">
          -15 callgsubr
          hstem
          167 259 105 266 vstem
          50 48 -102 callsubr
          endchar
        </CharString>
        <CharString name="sacute">
          -15 callgsubr
          78 510 21 callgsubr
          41 501 -437 266 hintmask 00101000
          571 1234 -92 callgsubr
          hintmask 11010100
          -417 -1271 -102 callsubr
          endchar
        </CharString>
        <CharString name="scaron">
          -15 callgsubr
          86 418 21 callgsubr
          -179 748 -464 266 hintmask 00101000
          474 -80 callsubr
          hintmask 11010100
          -197 -1534 -102 callsubr
          endchar
        </CharString>
        <CharString name="scedilla">
          -230 -468 194 281 -21 28 -21 966 197 21 callgsubr
          -120 207 18 266 hintmask 00000000
          hintmask 11010100
          50 48 rmoveto
          31 -26 110 -28 114 -8 2 -31 0 -40 -1 -37 -53 callsubr
          -67 callgsubr
          hvcurveto
          hintmask 10110100
          65 -15 79 -19 51 vhcurveto
          hintmask 10111010
          180 27 138 98 195 vvcurveto
          151 -93 85 -118 94 vhcurveto
          -96 81 -64 38 87 vvcurveto
          71 63 39 96 115 88 -55 -27 24 vhcurveto
          38 241 rlineto
          13 -31 -112 25 -119 hhcurveto
          -241 -180 -117 -205 -155 83 -84 96 -82 hvcurveto
          97 -82 88 -52 -84 vvcurveto
          -90 -80 -23 -87 -107 -120 59 33 -40 vhcurveto
          endchar
        </CharString>
        <CharString name="scircumflex">
          -15 callgsubr
          58 446 21 callgsubr
          -207 729 -417 266 hintmask 00101000
          327 1214 -93 callsubr
          hintmask 11010100
          -169 -1238 -102 callsubr
          endchar
        </CharString>
        <CharString name="second">
          -104 1190 592 hstemhm
          250 382 46 382 hintmask 11000000
          250 1190 3 callgsubr
          hintmask 10100000
          301 -592 3 callgsubr
          endchar
        </CharString>
        <CharString name="section">
          39 -187 204 1461 195 hstemhm
          152 249 -155 265 264 261 -154 244 hintmask 00000000
          hintmask 11100100
          99 -69 rmoveto
          -42 45 170 -76 178 hhcurveto
          hintmask 11101000
          346 201 163 224 -3 hvcurveto
          -1 72 -23 56 -36 47 rrcurveto
          hintmask 11010100
          95 71 56 102 -1 120 -3 199 -166 138 -185 92 -174 88 -93 36 6 120 rrcurveto
          77 5 88 60 155 hhcurveto
          72 173 -20 -76 57 hvcurveto
          65 186 rlineto
          40 -46 -125 65 -191 hhcurveto
          -336 -184 -154 -200 2 hvcurveto
          1 -98 33 -73 50 -59 rrcurveto
          hintmask 11101000
          -112 -64 -68 -86 2 -117 3 -217 176 -140 195 -90 169 -76 81 -52 -1 -76 rrcurveto
          -112 -105 -42 -170 -104 -186 47 68 -55 vhcurveto
          518 438 rmoveto
          -201 106 -77 56 6 127 2 53 22 41 31 31 55 -34 60 -29 58 -28 rrcurveto
          hintmask 11100100
          212 -107 42 -70 -1 -94 -1 -59 -19 -42 -27 -31 rrcurveto
          hintmask 11101000
          -51 29 -57 25 -54 26 rrcurveto
          endchar
        </CharString>
        <CharString name="semicolon">
          -629 -489 -21 1314 -21 hstemhm
          135 322 -312 243 hintmask 10010000
          -35 callsubr
          hintmask 01100000
          74 794 -84 callgsubr
          endchar
        </CharString>
        <CharString name="seven">
          -39 927 216 -54 54 hstemhm
          89 1012 hintmask 00000000
          hintmask 10100000
          249 -248 rmoveto
          238 -87 rlineto
          hintmask 01100000
          614 1424 rlineto
          hintmask 10100000
          -41 54 rlineto
          -922 hlineto
          -49 -217 693 2 rlineto
          endchar
        </CharString>
        <CharString name="six">
          123 -16 188 642 199 hstem
          128 263 495 267 vstem
          128 503 rmoveto
          -285 141 -234 311 396 177 330 292 210 -104 197 -251 -122 -120 -40 -53 -69 vhcurveto
          59 163 220 246 305 106 -62 163 rcurveline
          -513 -133 -368 -458 -504 vvcurveto
          263 -2 rmoveto
          63 11 63 20 72 vhcurveto
          41 35 94 74 147 hhcurveto
          102 86 -69 -170 -157 -70 -246 -199 -147 -79 138 191 hvcurveto
          endchar
        </CharString>
        <CharString name="slash">
          -21 callsubr
        </CharString>
        <CharString name="space">
          -670 endchar
        </CharString>
        <CharString name="sterling">
          242 -20 198 554 181 446 186 hstem
          1093 256 vstem
          83 -20 rmoveto
          76 93 47 67 53 hvcurveto
          -35 159 174 -79 241 hhcurveto
          420 49 232 140 1 hvcurveto
          105 -64 121 -91 56 vhcurveto
          -183 -144 rlineto
          36 -20 46 -65 -54 vvcurveto
          -105 -78 -68 -191 -124 -141 47 27 -85 vhcurveto
          63 89 33 77 34 203 19 111 rcurveline
          315 hlineto
          23 181 rlineto
          -308 hlineto
          19 109 rlineto
          256 42 109 81 118 hhcurveto
          122 78 -85 -27 10 hvcurveto
          132 198 rlineto
          50 -52 -97 50 -187 hhcurveto
          -346 1 -159 -258 -39 -255 -21 -120 rcurveline
          -180 hlineto
          -24 -181 rlineto
          173 hlineto
          -41 -245 -14 -87 -33 -86 -43 -39 rlinecurve
          -110 -140 -83 -96 -5 hvcurveto
          -73 -6 48 -43 76 hhcurveto
          endchar
        </CharString>
        <CharString name="summation">
          393 -170 212 1258 222 -80 80 hstemhm
          195 1132 hintmask 00000000
          hintmask 11010000
          195 -108 rmoveto
          26 -62 rlineto
          1106 212 -716 hlineto
          432 643 -440 615 rlineto
          688 222 -1066 hlineto
          hintmask 10110000
          -30 -80 549 -763 rlineto
          endchar
        </CharString>
        <CharString name="t">
          -365 -18 1 callgsubr
          hstemhm
          134 645 hintmask 00000000
          hintmask 01110000
          139 179 -47 callgsubr
          hintmask 10110000
          -39 139 rlineto
          -90 callgsubr
          hintmask 01110000
          5 callsubr
          endchar
        </CharString>
        <CharString name="tbar">
          -365 -18 200 -179 -21 639 130 203 186 hstemhm
          99 680 hintmask 00000000
          hintmask 01111000
          139 179 -47 callgsubr
          hintmask 10111000
          -39 139 rlineto
          -37 -43 -103 -53 -48 hhcurveto
          -55 -8 44 42 36 6 34 9 68 hvcurveto
          28 215 rlineto
          214 hlineto
          16 130 rlineto
          -212 hlineto
          27 203 rlineto
          244 hlineto
          23 186 rlineto
          -242 hlineto
          37 278 rlineto
          -216 hlineto
          -80 -278 rlineto
          -105 hlineto
          -39 -186 rlineto
          100 hlineto
          -26 -203 rlineto
          -93 hlineto
          -16 -130 rlineto
          92 hlineto
          -35 -274 rlineto
          hintmask 01111000
          5 callsubr
          endchar
        </CharString>
        <CharString name="tcaron">
          -365 -18 1 callgsubr
          106 645 hstemhm
          134 645 -25 223 hintmask 00000000
          hintmask 01101000
          139 179 -47 callgsubr
          hintmask 10101000
          -39 139 rlineto
          -90 callgsubr
          hintmask 01101000
          5 callsubr
          hintmask 00010100
          705 1067 -83 callgsubr
        </CharString>
        <CharString name="thorn">
          72 -483 -21 488 177 -144 -21 962 198 hstemhm
          857 288 hintmask 00000000
          hintmask 11011000
          80 -8 rmoveto
          -70 -496 rlineto
          272 hlineto
          48 365 rlineto
          hintmask 10111000
          15 135 rlineto
          hintmask 11011000
          -7 42 44 -5 39 -82 callgsubr
          endchar
        </CharString>
        <CharString name="three">
          -19 -327 201 484 111 467 223 hstemhm
          668 305 -283 292 hintmask 00000000
          hintmask 11110000
          70 -116 rmoveto
          -25 -199 rlineto
          -8 63 53 -4 48 hhcurveto
          410 354 185 309 153 -127 145 -228 4 hvcurveto
          hintmask 11101000
          205 65 159 158 181 vvcurveto
          196 -172 90 -192 -213 -183 -94 -65 -66 vhcurveto
          80 -177 rlineto
          65 84 103 48 102 hhcurveto
          108 57 -45 -82 -162 -212 -81 -182 -30 hvcurveto
          -22 -214 164 36 rlineto
          hintmask 11110000
          170 -3 60 -88 -102 vvcurveto
          -187 -189 -104 -277 -37 -46 4 6 -49 vhcurveto
          endchar
        </CharString>
        <CharString name="threequarters">
          1405 111 175 251 171 321 -21 478 186 hstemhm
          649 271 -253 260 364 1049 hintmask 10100010
          1808 -207 -68 callgsubr
          hintmask 00000000
          -1762 503 -11 callgsubr
          hintmask 01010100
          -51 callgsubr
          hintmask 01011000
          2 callgsubr
          hintmask 01010100
          596 -763 rmoveto
          -24 callgsubr
        </CharString>
        <CharString name="threesuperior">
          -84 509 171 778 186 hstemhm
          677 271 -253 260 hintmask 00000000
          hintmask 11010000
          118 586 -11 callgsubr
          hintmask 11100000
          -51 callgsubr
          hintmask 11010000
          2 callgsubr
          endchar
        </CharString>
        <CharString name="tilde">
          -335 1324 31 callsubr
          -18 844 hintmask 00000000
          hintmask 01100000
          79 1381 -22 callsubr
          67 -1 rrcurveto
          hintmask 10100000
          -85 callsubr
          hintmask 01100000
          -19 callgsubr
        </CharString>
        <CharString name="tilde.cap">
          -338 1630 -25 callgsubr
          1 844 hintmask 00000000
          hintmask 01110000
          98 1682 -22 callsubr
          66 -1 rrcurveto
          hintmask 10010000
          -76 callsubr
          hintmask 01110000
          -56 callgsubr
          endchar
        </CharString>
        <CharString name="trademark">
          965 1373 157 -88 88 hstemhm
          1825 159 hintmask 00000000
          hintmask 10100000
          898 734 rmoveto
          181 hlineto
          90 537 rlineto
          hintmask 01100000
          28 171 35 -168 129 -548 rlineto
          152 hlineto
          286 634 34 80 -16 -204 -32 -502 rlineto
          184 hlineto
          hintmask 10100000
          31 796 rlineto
          -302 hlineto
          -238 -573 -28 157 -92 416 rlineto
          -293 hlineto
          -716 -797 rmoveto
          181 1 91 639 rlineto
          245 hlineto
          19 157 rlineto
          -666 hlineto
          -25 -157 rlineto
          246 hlineto
          endchar
        </CharString>
        <CharString name="two">
          114 0 198 740 221 hstem
          764 305 vstem
          96 hmoveto
          993 hlineto
          36 213 -661 -30 rlineto
          307 160 298 195 285 vvcurveto
          175 -124 161 -278 -212 -183 -122 -85 -81 vhcurveto
          96 -151 rlineto
          63 76 130 74 110 hhcurveto
          106 55 -52 -100 -188 -336 -272 -371 -190 hvcurveto
          endchar
        </CharString>
        <CharString name="twosuperior">
          8 592 173 688 194 hstem
          778 268 vstem
          220 592 -56 callsubr
          endchar
        </CharString>
        <CharString name="u">
          -69 callgsubr
          -53 callgsubr
          hintmask 00000000
          hintmask 01011000
          -73 callgsubr
          hintmask 00110100
          -87 callgsubr
          hintmask 10011000
          -100 callgsubr
          hintmask 01011000
          -57 callgsubr
          endchar
        </CharString>
        <CharString name="uacute">
          -69 callgsubr
          114 510 -53 callgsubr
          -552 501 hintmask 00001001
          705 1234 -92 callgsubr
          hintmask 00000000
          -489 -1066 rmoveto
          -86 callsubr
          hintmask 01010100
          -87 callgsubr
          hintmask 00110010
          -100 callgsubr
          hintmask 10010100
          -57 callgsubr
          endchar
        </CharString>
        <CharString name="ubreve">
          -69 callgsubr
          180 182 -53 callgsubr
          -730 168 -97 callgsubr
          623 1047 -107 callsubr
          endchar
        </CharString>
        <CharString name="ucircumflex">
          -69 callgsubr
          94 446 -53 callgsubr
          -800 729 hintmask 00001001
          461 1214 -93 callsubr
          hintmask 00000000
          -241 -1033 rmoveto
          -86 callsubr
          hintmask 01010100
          -87 callgsubr
          hintmask 00110010
          -100 callgsubr
          hintmask 10010100
          -57 callgsubr
          endchar
        </CharString>
        <CharString name="udieresis">
          -69 callgsubr
          243 313 -53 callgsubr
          -781 303 144 303 11 callsubr
          hintmask 0000100110000000
          950 1363 -99 callgsubr
          11 callsubr
          -392 -1110 rmoveto
          -86 callsubr
          hintmask 0101010000000000
          -87 callgsubr
          hintmask 0011001000000000
          -100 callgsubr
          hintmask 1001010000000000
          -57 callgsubr
          endchar
        </CharString>
        <CharString name="ugrave">
          -69 callgsubr
          114 510 -53 callgsubr
          -846 492 -97 callgsubr
          583 981 -79 callsubr
        </CharString>
        <CharString name="uhungarumlaut">
          -69 callgsubr
          113 500 -53 callgsubr
          -771 895 -97 callgsubr
          839 980 -61 callgsubr
          endchar
        </CharString>
        <CharString name="umacron">
          -69 callgsubr
          295 179 -53 callgsubr
          -709 554 -97 callgsubr
          332 1162 -37 callsubr
          endchar
        </CharString>
        <CharString name="underscore">
          180 -363 176 hstem
          -111 1398 vstem
          -91 -187 rmoveto
          -20 -176 rlineto
          1378 hlineto
          20 176 rlineto
          endchar
        </CharString>
        <CharString name="uni0001">
          endchar
        </CharString>
        <CharString name="uni0002">
          endchar
        </CharString>
        <CharString name="uni0003">
          endchar
        </CharString>
        <CharString name="uni0004">
          endchar
        </CharString>
        <CharString name="uni0005">
          endchar
        </CharString>
        <CharString name="uni0006">
          endchar
        </CharString>
        <CharString name="uni0007">
          endchar
        </CharString>
        <CharString name="uni0008">
          endchar
        </CharString>
        <CharString name="uni0015">
          endchar
        </CharString>
        <CharString name="uni0016">
          endchar
        </CharString>
        <CharString name="uni0017">
          endchar
        </CharString>
        <CharString name="uni0018">
          endchar
        </CharString>
        <CharString name="uni0019">
          endchar
        </CharString>
        <CharString name="uni00AD">
          551 endchar
        </CharString>
        <CharString name="uni0162">
          -11 -468 194 295 31 callgsubr
          hstem
          390 207 vstem
          144 -259 rmoveto
          -67 callgsubr
          68 -16 84 -21 50 hvcurveto
          73 -61 callsubr
          -178 -1325 rlineto
          34 hlineto
          3 -33 0 -47 -1 -42 -53 callsubr
          endchar
        </CharString>
        <CharString name="uni0163">
          -365 -468 194 283 -21 966 186 hstem
          241 207 vstem
          139 179 rmoveto
          -91 39 -57 61 -28 vhcurveto
          3 -33 0 -49 -1 -43 -53 callsubr
          -67 callgsubr
          63 -14 76 -18 51 hvcurveto
          130 19 119 73 55 53 -39 139 rcurveline
          -90 callgsubr
          5 callsubr
          endchar
        </CharString>
        <CharString name="uni0218">
          -98 -21 callgsubr
          484 219 1128 215 20 callsubr
          -72 225 67 284 hintmask 11000100
          317 -156 -103 callgsubr
          hintmask 00111010
          -439 122 -74 callgsubr
        </CharString>
        <CharString name="uni0219">
          -230 -21 callgsubr
          484 198 777 197 21 callgsubr
          -120 225 0 266 hintmask 11000100
          245 -156 -103 callgsubr
          hintmask 00111010
          -335 92 -102 callsubr
          endchar
        </CharString>
        <CharString name="uni021A">
          -11 -21 callgsubr
          521 31 callgsubr
          hstemhm
          139 1088 -836 225 hintmask 11000100
          330 -156 -103 callgsubr
          hintmask 00111000
          -116 44 rmoveto
          279 -61 callsubr
          rlineto
          endchar
        </CharString>
        <CharString name="uni021B">
          -365 -21 callgsubr
          482 1 callgsubr
          hstemhm
          134 645 -538 225 hintmask 11000010
          180 -156 -103 callgsubr
          hintmask 00000000
          -181 223 -47 callgsubr
          hintmask 00011100
          -39 139 rlineto
          -90 callgsubr
          hintmask 00101100
          5 callsubr
          endchar
        </CharString>
        <CharString name="uni02c9">
          -538 1718 179 hstem
          53 545 vstem
          53 1718 rmoveto
          543 hlineto
          2 179 rlineto
          -543 hlineto
          endchar
        </CharString>
        <CharString name="uni0394">
          -40 callgsubr
        </CharString>
        <CharString name="uni03A9">
          -78 callsubr
        </CharString>
        <CharString name="uni03BC">
          -83 callsubr
        </CharString>
        <CharString name="uni1E02">
          155 22 callsubr
          165 -21 hstemhm
          595 329 -8 293 -266 281 hintmask 0000011000000000
          739 1654 -98 callsubr
          11 callsubr
          -642 -1654 rmoveto
          124 hlineto
          72 129 -15 79 hhcurveto
          hintmask 0111000100000000
          7 callsubr
          hintmask 1011000100000000
          8 callsubr
          hintmask 1011000010000000
          27 callsubr
          hintmask 1010100100000000
          -10 callgsubr
          hintmask 1011000010000000
          -41 -48 0 2 -42 hvcurveto
          hintmask 1010100100000000
          -27 callsubr
        </CharString>
        <CharString name="uni1E03">
          33 callgsubr
          195 315 hstemhm
          731 327 -201 288 hintmask 00000000
          hintmask 01100100
          80 -8 rmoveto
          hintmask 10100100
          146 33 rlineto
          -20 63 101 -21 80 -82 callgsubr
          hintmask 00011000
          493 1177 rmoveto
          -104 callgsubr
          endchar
        </CharString>
        <CharString name="uni1E0A">
          251 -1 callgsubr
          165 -21 hstemhm
          665 329 84 285 hintmask 00001100
          809 1654 -98 callsubr
          hintmask 00000000
          -712 -1654 -68 callsubr
        </CharString>
        <CharString name="uni1E0B">
          63 -7 callgsubr
          -10 -20 225 315 6 callgsubr
          -17 327 hintmask 00000000
          hintmask 10100100
          -26 callgsubr
          hintmask 01010100
          -65 callsubr
          hintmask 00001010
          9 1169 rmoveto
          -104 callgsubr
          endchar
        </CharString>
        <CharString name="uni1E1E">
          32 callgsubr
          145 -21 hstemhm
          91 1030 -562 329 hintmask 00010100
          703 1654 -98 callsubr
          hintmask 11101000
          -612 -1654 rmoveto
          -17 callgsubr
        </CharString>
        <CharString name="uni1E1F">
          -425 15 callsubr
          351 185 -20 315 -300 -15 callsubr
          -587 327 hintmask 00010010
          476 1656 rmoveto
          -104 callgsubr
          hintmask 00000000
          -347 -1656 rmoveto
          -96 callsubr
          hintmask 11001100
          -81 callsubr
          hintmask 11100100
          -4 callgsubr
          hintmask 11001100
          -88 callgsubr
        </CharString>
        <CharString name="uni1E40">
          33 callsubr
          145 -21 hstemhm
          9 1751 -830 329 hintmask 00010100
          1074 1654 -98 callsubr
          hintmask 00000000
          -1065 -1654 rmoveto
          26 callsubr
          hintmask 01101000
          13 callsubr
          hintmask 10101000
          -24 callsubr
        </CharString>
        <CharString name="uni1E41">
          712 10 callsubr
          215 315 hstemhm
          80 1667 -805 327 194 284 hintmask 00000000
          hintmask 00101000
          80 2 6 callsubr
          98 715 rlineto
          hintmask 10001000
          -46 callsubr
          hintmask 10000010
          -62 callsubr
          hintmask 01001000
          18 207 rlineto
          -265 hlineto
          hintmask 00010100
          849 -73 callsubr
          endchar
        </CharString>
        <CharString name="uni1E56">
          90 29 callsubr
          165 -21 hstemhm
          654 329 -10 275 hintmask 00001100
          798 1654 -98 callsubr
          hintmask 00000000
          -701 -1654 rmoveto
          -20 callsubr
          hintmask 11100010
          27 callgsubr
          hintmask 11010010
          -14 callgsubr
          hintmask 11100010
          -50 -69 6 7 -29 hvcurveto
          endchar
        </CharString>
        <CharString name="uni1E57">
          18 callgsubr
          231 315 hstemhm
          660 327 -133 288 hintmask 00000000
          hintmask 10101001
          353 -5 rmoveto
          hintmask 11010001
          -18 callgsubr
          hintmask 11001001
          -2 callsubr
          hintmask 11010001
          -2 callgsubr
          hintmask 11001001
          -42 -39 3 10 -35 hvcurveto
          hintmask 00000110
          424 1177 rmoveto
          -104 callgsubr
          endchar
        </CharString>
        <CharString name="uni1E60">
          -98 4 callgsubr
          129 -21 20 callsubr
          88 329 -197 284 hintmask 00101000
          682 1654 -98 callsubr
          hintmask 11010100
          -664 -1576 -74 callgsubr
        </CharString>
        <CharString name="uni1E61">
          -15 callgsubr
          195 315 21 callgsubr
          32 327 -254 266 hintmask 11010100
          50 48 -102 callsubr
          hintmask 00101000
          503 1077 rmoveto
          -104 callgsubr
          endchar
        </CharString>
        <CharString name="uni1E6A">
          -11 21 31 callgsubr
          146 -21 hstemhm
          139 1088 -651 329 hintmask 00101000
          720 1654 -98 callsubr
          hintmask 11010000
          -366 -1654 rmoveto
          279 -61 callsubr
          rlineto
          endchar
        </CharString>
        <CharString name="uni1E6B">
          -365 -18 1 callgsubr
          333 315 hstemhm
          134 645 -428 327 hintmask 00000000
          hintmask 01101000
          139 179 -47 callgsubr
          hintmask 10101000
          -39 139 rlineto
          -90 callgsubr
          hintmask 01101000
          5 callsubr
          hintmask 00010100
          354 1294 rmoveto
          -104 callgsubr
          endchar
        </CharString>
        <CharString name="uni2113">
          146 -22 215 1239 233 hstem
          271 245 399 246 vstem
          23 162 rmoveto
          200 -134 52 34 51 37 49 37 rlinecurve
          -108 74 103 -50 96 hhcurveto
          320 127 241 177 58 hvcurveto
          -212 63 rlineto
          -157 -40 -98 -109 -120 hhcurveto
          -60 -42 35 57 -26 hvcurveto
          357 320 250 392 -1 377 rrcurveto
          182 -1 -92 109 -160 hhcurveto
          -394 -243 -626 -498 -65 5 -58 10 -53 hvcurveto
          -85 -73 -89 -68 -89 -62 rrcurveto
          493 419 rmoveto
          385 14 170 466 154 hhcurveto
          44 17 -47 -46 hvcurveto
          3 -244 -169 -269 -233 -245 rrcurveto
          endchar
        </CharString>
        <CharString name="uni2215">
          -21 callsubr
        </CharString>
        <CharString name="uni2219">
          -469 641 -21 hstem
          179 322 vstem
          179 753 -84 callgsubr
          endchar
        </CharString>
        <CharString name="uogonek">
          82 37 callgsubr
          262 213 -192 -21 41 -59 callsubr
          hstemhm
          112 283 126 238 hintmask 00000000
          hintmask 10011110
          112 253 rmoveto
          hintmask 10101110
          -86 callsubr
          hintmask 10011110
          -13 -205 rlineto
          32 hlineto
          -86 callgsubr
          15 hlineto
          153 1140 -33 callsubr
          -98 -722 rlineto
          hintmask 11001110
          -100 callgsubr
          hintmask 10011110
          -57 callgsubr
          endchar
        </CharString>
        <CharString name="uring">
          -69 callgsubr
          133 125 293 124 -53 callgsubr
          -712 167 324 168 hintmask 0000110011000000
          741 1253 -72 callsubr
          11 callsubr
          -642 -1125 rmoveto
          -86 callsubr
          hintmask 0101001000000000
          -87 callgsubr
          hintmask 0011000100000000
          -100 callgsubr
          hintmask 1001001000000000
          -57 callgsubr
          endchar
        </CharString>
        <CharString name="utilde">
          -69 callgsubr
          204 203 -56 203 -53 callgsubr
          -839 844 11 callsubr
          hintmask 0101001000000000
          -73 callgsubr
          hintmask 0011000100000000
          -87 callgsubr
          hintmask 1001001000000000
          -100 callgsubr
          hintmask 0101001000000000
          -57 callgsubr
          11 callsubr
          299 1128 -22 callsubr
          67 -1 rrcurveto
          hintmask 0000010010000000
          -85 callsubr
          hintmask 0000100010000000
          -19 callgsubr
        </CharString>
        <CharString name="v">
          -82 2 -21 1159 -20 hstem
          788 262 vstem
          260 -19 rmoveto
          227 12 90 103 239 230 221 334 13 334 rlinecurve
          2 76 -4 39 -3 31 rrcurveto
          -257 hlineto
          2 -74 -21 -164 -13 -66 -41 -208 -67 -138 -93 -148 -96 -127 rcurveline
          -12 202 -65 723 rlineto
          -284 hlineto
          106 -783 rlineto
          endchar
        </CharString>
        <CharString name="w">
          -6 callgsubr
          hstem
          1419 258 vstem
          265 -19 -102 callgsubr
          endchar
        </CharString>
        <CharString name="wacute">
          -6 callgsubr
          114 510 hstemhm
          825 501 93 258 hintmask 00110000
          929 1234 -92 callgsubr
          hintmask 11001000
          -560 -1338 -102 callgsubr
          endchar
        </CharString>
        <CharString name="wcircumflex">
          -6 callgsubr
          94 446 hstemhm
          576 729 114 258 hintmask 00110000
          684 1214 -93 callsubr
          hintmask 11001000
          -311 -1305 -102 callgsubr
          endchar
        </CharString>
        <CharString name="wdieresis">
          -6 callgsubr
          243 313 hstemhm
          595 303 144 303 74 258 hintmask 00000000
          hintmask 00111000
          1173 1363 -99 callgsubr
          hintmask 11000100
          -462 -1382 -102 callgsubr
          endchar
        </CharString>
        <CharString name="wgrave">
          -6 callgsubr
          114 510 hstemhm
          530 492 397 258 hintmask 11001000
          265 -19 -102 callgsubr
          hintmask 00110000
          709 877 -79 callsubr
        </CharString>
        <CharString name="x">
          -152 1140 -20 hstem
          -80 1137 vstem
          -80 2 rmoveto
          289 hlineto
          248 381 158 -381 rlineto
          319 hlineto
          -300 560 423 578 rlineto
          -284 hlineto
          -234 -363 -136 363 rlineto
          -321 hlineto
          278 -543 rlineto
          endchar
        </CharString>
        <CharString name="y">
          -30 callsubr
          hstem
          792 258 vstem
          -103 callsubr
          endchar
        </CharString>
        <CharString name="yacute">
          -30 callsubr
          114 510 hstemhm
          465 501 -174 258 hintmask 11100100
          -103 callsubr
          hintmask 00011000
          640 1489 2 callsubr
        </CharString>
        <CharString name="ycircumflex">
          -30 callsubr
          94 446 hstemhm
          217 729 -154 258 hintmask 11100100
          -103 callsubr
          hintmask 00011000
          396 1469 -45 callgsubr
        </CharString>
        <CharString name="ydieresis">
          -30 callsubr
          hstemhm
          792 258 vstemhm
          -103 callsubr
          885 1618 -48 callsubr
        </CharString>
        <CharString name="yen">
          321 21 -21 350 156 200 156 668 -20 hstem
          168 1311 vstem
          168 350 rmoveto
          407 hlineto
          -42 -350 rlineto
          272 hlineto
          45 350 rlineto
          418 hlineto
          17 156 rlineto
          -415 hlineto
          25 200 rlineto
          417 hlineto
          18 156 rlineto
          -330 hlineto
          479 668 rlineto
          -308 hlineto
          -322 -553 -56 -114 -34 110 -211 557 rlineto
          -274 hlineto
          287 -668 rlineto
          -331 hlineto
          -18 -156 rlineto
          407 hlineto
          -25 -200 rlineto
          -408 hlineto
          endchar
        </CharString>
        <CharString name="ygrave">
          -30 callsubr
          114 510 hstemhm
          171 492 129 258 hintmask 11100100
          -103 callsubr
          hintmask 00011000
          630 1489 -79 callsubr
        </CharString>
        <CharString name="z">
          -13 callsubr
          hstemhm
          -37 1033 hintmask 00000000
          hintmask 11010000
          10 hmoveto
          -23 callgsubr
          hintmask 10110000
          571 787 rlineto
          hintmask 11010000
          -52 callgsubr
          endchar
        </CharString>
        <CharString name="zacute">
          -13 callsubr
          94 510 hstemhm
          -37 1033 -497 501 hintmask 00010100
          603 1234 -92 callgsubr
          hintmask 00000000
          -489 -1319 -36 callsubr
        </CharString>
        <CharString name="zcaron">
          -13 callsubr
          102 418 hstemhm
          -37 1033 -717 748 hintmask 00010100
          506 -80 callsubr
          hintmask 00000000
          -269 -1582 -36 callsubr
        </CharString>
        <CharString name="zdotaccent">
          -13 callsubr
          211 315 hstemhm
          -37 1033 -506 327 hintmask 00000000
          hintmask 11001000
          10 hmoveto
          -23 callgsubr
          hintmask 10101000
          571 787 rlineto
          hintmask 11001000
          -52 callgsubr
          hintmask 00010100
          669 1299 rmoveto
          -104 callgsubr
          endchar
        </CharString>
        <CharString name="zero">
          123 -16 212 750 210 hstem
          98 271 531 270 vstem
          98 450 rmoveto
          -242 133 -224 308 363 268 331 376 264 -125 201 -311 -344 -292 -303 -403 vhcurveto
          271 28 rmoveto
          184 78 289 262 -5 vhcurveto
          141 -2 50 -114 -169 vvcurveto
          -217 -98 -248 -224 -141 -68 128 154 vhcurveto
          endchar
        </CharString>
      <CharString index="0">
        rmoveto
        -232 -3 120 -222 296 hhcurveto
        227 171 136 82 58 hvcurveto
        -73 141 rlineto
        -86 -82 -132 -75 -114 hhcurveto
        -151 -29 113 109 3 hvcurveto
        281 50 359 130 316 vvcurveto
        151 -97 105 -214 -355 -260 -310 -408 -5 vhcurveto
        291 125 rmoveto
        158 11 92 263 165 hhcurveto
        64 38 -29 -81 -179 -230 -125 -140 -7 hvcurveto
        return
      </CharString>
      <CharString index="1">
        rmoveto
        -276 3 154 -170 324 hhcurveto
        383 202 171 457 62 hvcurveto
        122 918 rlineto
        -273 hlineto
        -119 -891 rlineto
        -326 -45 -103 -113 -188 hhcurveto
        -160 -77 71 172 -3 hvcurveto
        57 3 62 9 73 vhcurveto
        120 895 -33 callsubr
        -125 -935 -8 -59 -6 -54 1 -52 rlinecurve
        return
      </CharString>
      <CharString index="2">
        rmoveto
        -276 3 125 -197 275 hhcurveto
        379 223 337 363 -3 hvcurveto
        276 -3 -119 196 -276 hhcurveto
        -379 -228 -336 -363 3 hvcurveto
        442 -292 rmoveto
        -107 -55 92 181 -1 hvcurveto
        237 -3 91 301 195 hhcurveto
        108 49 -90 -186 1 hvcurveto
        -242 3 -84 -293 -197 hhcurveto
        return
      </CharString>
      <CharString index="3">
        111 71 80 95 3 hvcurveto
        76 2 -60 64 -92 hhcurveto
        -98 -77 -79 -93 -2 hvcurveto
        -79 -3 67 -64 78 hhcurveto
        return
      </CharString>
      <CharString index="4">
        rmoveto
        -9 -74 rlineto
        40 -6 30 -51 -48 vvcurveto
        -74 -33 -40 -35 -25 vhcurveto
        -3 -26 90 -60 rlineto
        91 18 115 115 167 vvcurveto
        101 -60 96 -86 19 vhcurveto
        return
      </CharString>
      <CharString index="5">
        rmoveto
        225 12 86 103 103 105 85 130 67 133 rlinecurve
        13 -107 57 -376 217 12 86 100 261 249 200 327 12 334 rlinecurve
        2 77 -3 30 -3 30 rrcurveto
        -254 hlineto
        3 -74 -23 -164 -11 -66 -35 -208 -66 -141 -93 -148 -95 -129 rcurveline
        -12 207 -61 723 rlineto
        -278 hlineto
        33 -273 -39 -206 -91 -178 -88 -141 rlinecurve
        -97 -132 -11 207 -65 723 rlineto
        -290 hlineto
        109 -783 rlineto
        return
      </CharString>
      <CharString index="6">
        hintmask 00000000
        hintmask 10101000
        399 -16 rmoveto
        160 117 121 112 65 hvcurveto
        hintmask 01101000
        -14 -217 rlineto
        246 hlineto
        159 1156 -149 -39 rlineto
        19 -63 -97 20 -77 hhcurveto
        -459 -211 -31 callgsubr
        hvcurveto
        hintmask 10101000
        -81 callgsubr
        hintmask 01101000
        -82 callsubr
        hintmask 10101000
        -126 -56 -111 -180 -120 hhcurveto
        hintmask 00010100
        return
      </CharString>
      <CharString index="7">
        -118 -74 -114 -107 -94 hhcurveto
        -63 -39 28 86 48 10 94 13 94 hvcurveto
        11 90 53 395 15 112 rrcurveto
        -274 hlineto
        -17 -110 -54 -394 -12 -90 rrcurveto
        return
      </CharString>
      <CharString index="8">
        rmoveto
        105 64 81 94 3 hvcurveto
        71 2 -56 36 callsubr
        -68 -77 -92 -2 hvcurveto
        -74 -3 61 -70 73 hhcurveto
        -446 hmoveto
        105 63 81 94 3 hvcurveto
        71 2 -55 36 callsubr
        -69 -77 -92 -2 hvcurveto
        -74 -3 63 -70 72 hhcurveto
        return
      </CharString>
      <CharString index="9">
        rmoveto
        241 155 83 31 40 hvcurveto
        -38 208 rlineto
        -35 -45 -134 -64 -154 hhcurveto
        -214 -90 169 261 -2 hvcurveto
        295 -3 116 382 344 hhcurveto
        157 82 -59 -27 36 hvcurveto
        86 250 -54 16 rlineto
        22 -60 -83 30 -142 hhcurveto
        -443 -323 -397 -523 5 hvcurveto
        -314 3 124 -328 396 hhcurveto
        return
      </CharString>
      <CharString index="10">
        hintmask 00000000
        hintmask 01010100
        -73 callgsubr
        hintmask 00110010
        -87 callgsubr
        hintmask 10010100
        -100 callgsubr
        hintmask 01010100
        -57 callgsubr
        hintmask 00001001
        return
      </CharString>
      <CharString index="11">
        -107 callgsubr
        endchar
      </CharString>
      <CharString index="12">
        929 15 callsubr
        0 -20 231 315 -175 -32 callsubr
        -62 792 -89 15 callgsubr
        hintmask 1010000010000000
        1562 hmoveto
        -84 callsubr
        hintmask 0001000001000000
        175 -73 callsubr
        11 callsubr
        -1764 -1351 rmoveto
        -96 callsubr
        hintmask 1100011000000000
        -81 callsubr
        hintmask 1100101000000000
        -4 callgsubr
        hintmask 1100011000000000
        -99 callsubr
        hintmask 1100101000000000
        600 -954 rmoveto
        -96 callsubr
        11 callsubr
        -81 callsubr
        hintmask 1100010100000000
        -4 callgsubr
        hintmask 1100100100000000
        -88 callgsubr
      </CharString>
      <CharString index="13">
        121 81 132 99 92 hhcurveto
        60 35 -20 -90 -2 hvcurveto
        -1 -66 -14 -110 -18 -133 -22 -165 -29 -14 callsubr
        -89 80 -160 -157 -147 -97 -131 -101 vhcurveto
        return
      </CharString>
      <CharString index="14">
        rmoveto
        96 36 183 136 57 106 -167 157 rcurveline
        -277 -342 rlineto
        return
      </CharString>
      <CharString index="15">
        rmoveto
        120 46 241 227 36 68 -180 169 rcurveline
        -321 -425 rlineto
        return
      </CharString>
      <CharString index="16">
        300 205 197 -200 119 73 -201 340 rlineto
        -179 hlineto
        return
      </CharString>
      <CharString index="17">
        -37 -43 -103 -53 -48 hhcurveto
        -55 -8 44 42 36 6 34 9 68 hvcurveto
        73 548 rlineto
        244 hlineto
        23 186 rlineto
        -242 hlineto
        37 278 rlineto
        -216 hlineto
        -80 -278 rlineto
        -105 hlineto
        -39 -186 rlineto
        100 hlineto
        -78 -607 rlineto
        return
      </CharString>
      <CharString index="18">
        1631 -107 callsubr
        return
      </CharString>
      <CharString index="19">
        -99 callsubr
        endchar
      </CharString>
      <CharString index="20">
        -13 -205 rlineto
        250 hlineto
        153 1140 -33 callsubr
        -98 -722 rlineto
        return
      </CharString>
      <CharString index="21">
        -86 -42 -175 -115 -142 vvcurveto
        -84 70 -90 133 131 95 49 60 61 vhcurveto
        -46 137 rlineto
        -42 -56 -40 -13 -45 hhcurveto
        -31 -34 13 56 69 121 89 105 55 hvcurveto
        return
      </CharString>
      <CharString index="22">
        131 430 -106 callgsubr
        return
      </CharString>
      <CharString index="23">
        rmoveto
        -78 56 -55 81 112 73 74 116 69 -38 61 -102 -112 -70 -90 -97 vhcurveto
        return
      </CharString>
      <CharString index="24">
        rmoveto
        84 105 49 187 144 vvcurveto
        88 -9 79 -25 42 vhcurveto
        -203 -47 -14 -37 rlineto
        20 -30 8 -91 -75 vvcurveto
        -111 -19 -117 -22 -78 vhcurveto
        6 -25 rlineto
        endchar
      </CharString>
      <CharString index="25">
        hhcurveto
        459 216 399 341 245 -91 187 -232 -166 -122 -127 -114 -65 hvcurveto
        27 147 70 574 rlineto
        -264 hlineto
        78 -1462 rmoveto
        60 466 rlineto
        122 52 121 196 129 hhcurveto
        74 41 -81 -175 -239 -114 -302 -246 -42 -40 3 10 -35 hvcurveto
        return
      </CharString>
      <CharString index="26">
        -67 callsubr
        vhcurveto
        80 196 rmoveto
        -74 -42 81 176 hvcurveto
        return
      </CharString>
      <CharString index="27">
        121 81 131 97 92 25 callsubr
        -22 -165 -29 -193 -21 -154 rrcurveto
        -38 callgsubr
        21 145 30 198 24 170 rrcurveto
        22 160 18 -26 callsubr
        -90 80 -160 -160 -151 -102 -137 -102 vhcurveto
        35 199 return
      </CharString>
      <CharString index="28">
        hmoveto
        271 hlineto
        80 590 597 940 rlineto
        -303 hlineto
        -348 -608 -48 -105 -28 105 -195 608 rlineto
        -292 hlineto
        346 -940 rlineto
        return
      </CharString>
      <CharString index="29">
        rmoveto
        108 93 -277 342 -167 -157 57 -106 183 -136 96 -36 rlinecurve
        return
      </CharString>
      <CharString index="30">
        67 rmoveto
        -222 -31 -36 -195 -179 hhcurveto
        -8 -26 2 9 -12 hvcurveto
        -70 -146 rlineto
        -20 28 58 -16 71 hhcurveto
        232 196 190 333 45 hvcurveto
        156 1138 rlineto
        -277 hlineto
        return
      </CharString>
      <CharString index="31">
        57 -183 24 -82 27 -40 309 -2 rcurveline
        -39 55 -33 84 -94 255 -31 106 -57 112 -54 49 238 72 107 204 -2 237 rrcurveto
        237 -3 -155 136 -351 hhcurveto
        return
      </CharString>
      <CharString index="32">
        -104 callsubr
        endchar
      </CharString>
      <CharString index="33">
        -105 callsubr
        endchar
      </CharString>
      <CharString index="34">
        112 253 rmoveto
        -86 callsubr
        return
      </CharString>
      <CharString index="35">
        -100 callsubr
        endchar
      </CharString>
      <CharString index="36">
        hintmask 00000000
        hintmask 10100100
        399 -16 rmoveto
        160 117 121 112 65 hvcurveto
        hintmask 01100100
        -14 -217 rlineto
        246 hlineto
        159 1156 -149 -39 rlineto
        19 -63 -97 20 -77 hhcurveto
        -459 -211 -31 callgsubr
        hvcurveto
        hintmask 10100100
        -81 callgsubr
        hintmask 01100100
        -82 callsubr
        hintmask 10100100
        -126 -56 -111 -180 -120 hhcurveto
        return
      </CharString>
      <CharString index="37">
        1572 -93 callgsubr
        return
      </CharString>
      <CharString index="38">
        78 -20 213 -192 -21 41 -59 callsubr
        return
      </CharString>
      <CharString index="39">
        rmoveto
        240 hlineto
        40 318 rlineto
        230 hlineto
        22 199 -227 -9 34 265 -235 -23 -35 -251 -318 -12 73 89 468 639 -173 104 -58 -1 -578 -888 49 -112 rlineto
        512 hlineto
        return
      </CharString>
      <CharString index="40">
        -31 -177 rlineto
        -16 23 119 -16 53 hhcurveto
        184 105 87 179 return
      </CharString>
      <CharString index="41">
        285 hintmask 11010100
        -63 callsubr
        return
      </CharString>
      <CharString index="42">
        21 -58 callsubr
        return
      </CharString>
      <CharString index="43">
        rmoveto
        114 38 183 162 63 116 -157 131 rcurveline
        -299 -372 rlineto
        -346 -75 rmoveto
        100 37 196 164 52 116 -158 130 rcurveline
        -298 -372 rlineto
        endchar
      </CharString>
      <CharString index="44">
        157 136 5 41 rlineto
        -48 43 -29 91 78 vvcurveto
        160 91 117 69 35 vhcurveto
        2 22 -95 126 rlineto
        -134 -60 -200 -168 -283 vvcurveto
        -176 101 -122 81 -40 vhcurveto
        return
      </CharString>
      <CharString index="45">
        rmoveto
        -26 -131 -101 -141 -165 -47 39 -103 rcurveline
        220 17 217 87 86 307 29 97 89 682 87 676 rrcurveto
        -277 hlineto
        -56 -435 -59 -618 -83 -391 rrcurveto
        return
      </CharString>
      <CharString index="46">
        rmoveto
        92 42 197 222 37 105 -180 131 rcurveline
        -258 -432 rlineto
        -340 -68 rmoveto
        98 52 172 208 41 113 -177 127 rcurveline
        -251 -432 rlineto
        return
      </CharString>
      <CharString index="47">
        16 0 216 462 212 426 213 return
      </CharString>
      <CharString index="48">
        68 504 rlineto
        6 34 87 7 52 hhcurveto
        164 88 -55 -131 5 hvcurveto
        -166 5 -80 -168 -214 hhcurveto
        return
      </CharString>
      <CharString index="49">
        52 -16 196 -159 -21 980 176 return
      </CharString>
      <CharString index="50">
        -15 -113 -14 -111 1 -69 rrcurveto
        return
      </CharString>
      <CharString index="51">
        -101 -30 142 -162 hhcurveto
        -108 -140 -94 -89 -44 hvcurveto
        return
      </CharString>
      <CharString index="52">
        808 hlineto
        32 229 -534 -8 176 1309 -33 callsubr
        return
      </CharString>
      <CharString index="53">
        616 -476 rmoveto
        -200 103 -136 199 274 173 239 238 191 -86 129 -214 -260 -189 -231 -230 vhcurveto
        198 9 rmoveto
        113 70 175 145 82 47 -67 -106 -109 -62 -186 -142 -89 -51 74 106 vhcurveto
        endchar
      </CharString>
      <CharString index="54">
        hstemhm
        112 283 -283 1041 return
      </CharString>
      <CharString index="55">
        -41 48 rlineto
        -773 hlineto
        -29 -211 rlineto
        488 hlineto
        -111 -104 -567 -773 rlineto
        return
      </CharString>
      <CharString index="56">
        135 51 88 104 2 142 rrcurveto
        105 2 -85 121 -237 hhcurveto
        -144 -142 -42 -79 -114 hvcurveto
        61 -146 62 43 82 37 104 1 rlinecurve
        101 1 39 -50 -56 vvcurveto
        -113 -118 -57 -177 -41 vhcurveto
        -28 -177 199 47 rlineto
        return
      </CharString>
      <CharString index="57">
        -57 callsubr
        -20 return
      </CharString>
      <CharString index="58">
        -38 callgsubr
        95 688 rlineto
        124 74 104 66 88 hhcurveto
        41 41 -6 -14 17 hvcurveto
        return
      </CharString>
      <CharString index="59">
        rmoveto
        181 174 92 197 163 -119 86 -172 -159 -210 -79 -210 -161 119 -88 186 hvcurveto
        9 123 rmoveto
        -78 -68 59 76 122 97 36 83 80 63 -55 -77 -131 -88 -30 -89 hvcurveto
        endchar
      </CharString>
      <CharString index="60">
        rmoveto
        -137 87 -60 122 155 153 89 62 64 vhcurveto
        return
      </CharString>
      <CharString index="61">
        rmoveto
        245 hlineto
        141 1033 -119 21 -51 -41 -225 -103 -140 -35 rlinecurve
        10 -140 246 52 rlineto
        return
      </CharString>
      <CharString index="62">
        -93 callsubr
        endchar
      </CharString>
      <CharString index="63">
        303 311 -35 callgsubr
        return
      </CharString>
      <CharString index="64">
        76 -156 68 -140 18 -26 328 -2 rcurveline
        -65 101 -66 117 -66 125 -89 165 -90 180 -96 166 610 677 rcurveline
        -318 hlineto
        -600 -719 97 719 -33 callsubr
        endchar
      </CharString>
      <CharString index="65">
        -67 callsubr
        vhcurveto
        80 198 rmoveto
        -74 -42 79 176 hvcurveto
        return
      </CharString>
      <CharString index="66">
        3 -16 181 811 180 return
      </CharString>
      <CharString index="67">
        252 0 229 hstem
        -44 1366 vstem
        -32 hmoveto
        1337 hlineto
        17 27 -569 1481 rlineto
        -32 hlineto
        -765 -1486 rlineto
        382 207 rmoveto
        369 756 273 -756 rlineto
        endchar
      </CharString>
      <CharString index="68">
        -83 -5 54 -56 84 hhcurveto
        104 81 73 110 6 hvcurveto
        74 4 -38 63 -107 hhcurveto
        -102 -75 -83 -98 -6 hvcurveto
        return
      </CharString>
      <CharString index="69">
        276 hlineto
        return
      </CharString>
      <CharString index="70">
        rmoveto
        543 hlineto
        13 179 rlineto
        -544 hlineto
        return
      </CharString>
      <CharString index="71">
        rmoveto
        -22 callgsubr
        hintmask 11001000
        761 1114 rlineto
        hintmask 10101000
        -52 callsubr
        endchar
      </CharString>
      <CharString index="72">
        rmoveto
        -91 callsubr
        return
      </CharString>
      <CharString index="73">
        rmoveto
        -621 388 -90 -142 389 -326 -470 -331 48 -160 717 396 rlineto
        return
      </CharString>
      <CharString index="74">
        58 -511 179 316 198 798 176 return
      </CharString>
      <CharString index="75">
        -531 -372 rmoveto
        -74 -32 70 176 239 117 304 263 44 51 -10 -20 46 hvcurveto
        -102 -120 -64 -166 -8 -195 rrcurveto
        -131 -58 -93 -147 -90 hhcurveto
        endchar
      </CharString>
      <CharString index="76">
        -401 -341 return
      </CharString>
      <CharString index="77">
        -78 callgsubr
        endchar
      </CharString>
      <CharString index="78">
        hmoveto
        -38 callgsubr
        88 658 rlineto
        568 hlineto
        -88 -658 rlineto
        278 hlineto
        206 -57 callsubr
        rlineto
        -278 hlineto
        -91 -675 rlineto
        -568 hlineto
        91 675 -33 callsubr
        return
      </CharString>
      <CharString index="79">
        9 -11 -27 4 -28 hhcurveto
        -157 -118 -132 -100 -46 hvcurveto
        return
      </CharString>
      <CharString index="80">
        304 246 return
      </CharString>
      <CharString index="81">
        398 -16 rmoveto
        166 122 130 116 65 hvcurveto
        return
      </CharString>
      <CharString index="82">
        203 -130 -21 90 203 hstemhm
        return
      </CharString>
</ttFont>
